<svg xmlns="http://www.w3.org/2000/svg" width="302.193" height="208.012" viewBox="0 0 302.193 208.012">
  <g fill="#FFF">
    <path d="M71.806 90.643c0 3.972-.913 7.245-2.737 9.82-.645.967-1.505 2.472-2.577 4.51-.644.86-3.275 3.166-7.89 6.922.107-.322.376-.805.806-1.45 0-.104.052-.16.16-.16h-.805c.858 0-.27.483-3.38 1.45.75-.43 1.823-1.18 3.22-2.255.105-.214.052-.428-.162-.644l-20.608 10.626c-.108-.428-.322-.644-.644-.644-1.503 0-5.795 1.557-12.88 4.67-.32.104-.965.644-1.93 1.61 0-.753.105-1.128.32-1.128-.643.644-1.073 1.555-1.287 2.736-.216-.107-.644-.43-1.288-.966-3.542 1.394-5.207 3.917-4.99 7.567-.217 0-.512-.136-.887-.402-.377-.27-.67-.402-.885-.402-.216.32-.86 1.77-1.932 4.347h-.804c-.108-1.074-.108-2.362 0-3.864-.216-.43-.483-.752-.805-.966-.215.214-.32.59-.32 1.127 0-.538-.162-.913-.484-1.127-.216.214-.805 1.02-1.77 2.415.104-1.826.104-3.006 0-3.542-.323 0-.54.16-.645.483-.215.966-.75 2.36-1.61 4.186-.107-.108-.268-.966-.482-2.576-.322-1.183-.16-2.2.483-3.06-.75-.86-1.5-1.287-2.253-1.287-.428 0-.91.052-1.45.16-.535.105-.965.16-1.287.16v-2.414c1.183-.217 2.737-.645 4.67-1.288.535-1.505 1.823-4.936 3.863-10.304 1.18-3.112 2.576-7.084 4.186-11.914v-.483c-.43.322-.806.86-1.128 1.61 4.613-15.134 8.855-31.984 12.72-50.554 2.467-12.45 3.863-21.896 4.185-28.336v-3.542c0-1.5-.055-2.63-.16-3.38v-2.899c.213.752.643 1.77 1.287 3.06.644-1.073.966-2.255.966-3.543 0-.966-.16-1.932-.483-2.898.106-.536.644-1.716 1.61-3.542-.322 3.328-.483 5.635-.483 6.923.322-.644.966-1.824 1.932-3.542.536-.644 1.394-1.502 2.576-2.576.214.216.588.86 1.127 1.932.213-.105.374-.483.482-1.127v1.127c.966 0 1.663.108 2.093.322.214-.214.402-.563.563-1.046.16-.483.294-.777.402-.885-.108.54-.108 1.61 0 3.22.75-.32 1.34-.91 1.77-1.77l-.965-1.127 2.898 1.932c.536-1.072.805-2.2.805-3.38.106.643.322 1.556.644 2.736.106-.643.375-1.287.805-1.93.214 1.182.697 2.953 1.45 5.312h.16c.106-1.61.483-3.647 1.127-6.118.536-1.072 1.34-1.61 2.415-1.61.643 0 1.34.966 2.092 2.898-1.396 0-2.254.644-2.576 1.932-.322.966-.322 2.148 0 3.542.536 3.437.805 6.817.805 10.143 0 5.473-.804 10.68-2.414 15.616 0-.428-.216-.91-.644-1.45-.322 1.61-.913 4.026-1.77 7.246-.217-.214-.43-.322-.645-.322-.43.86-.913 2.148-1.45 3.864.107.538.162 1.396.162 2.576-.43.538-1.022 1.45-1.772 2.737v-1.61c-.108-.106-.216 0-.322.322-.54 1.93-1.666 5.69-3.38 11.27 1.07-.106 3.325-.106 6.76 0 3.865.215 6.924.698 9.178 1.448 4.614 1.718 8.478 4.83 11.592 9.338 3.113 4.507 4.67 9.232 4.67 14.167zM26.404 12.72c-.216.32-.43 1.234-.644 2.736-.322-.644-.752-1.716-1.288-3.22.428.43.697.644.805.644h.805c.106-.106.214-.16.322-.16zm-.644 94.828h-.483l-.805 1.932.483.16.805-2.092zm1.45-4.508c-.645.538-1.128 1.718-1.45 3.542-.216 0-.377.055-.483.16.105.217.267.484.483.806.966-2.254 1.45-3.756 1.45-4.508zm23.988-8.21c0-.86-.322-2.094-.966-3.704l-.805 2.576c0-1.394-.483-3.22-1.45-5.474 0 1.074-.107 1.77-.32 2.093 0-.535-.645-1.393-1.933-2.575h1.288c-.54-1.716-3.437-2.576-8.694-2.576-2.04 0-3.275.43-3.703 1.287.75 0 1.876.27 3.38.805l-3.54.805c-1.075 3.328-2.685 8.05-4.83 14.168 0-.214.052-.322.16-.322.105.216.16.538.16.966 0 .538-.24 1.395-.724 2.575-.482 1.182-.724 1.88-.724 2.093.536-.644 1.072-1.5 1.61-2.576.214.216.267.377.16.483 0-.322-.215-.106-.643.644-.538.965-1.02 1.61-1.45 1.93l-.32.323c-.11 1.182-.323 2.148-.645 2.898 0-.535.322-.804.966-.804.214.86-.27 2.04-1.45 3.542h1.29c-.54.752-1.184 1.77-1.933 3.06 1.61-.537 3.327-1.61 5.153-3.22-1.182.86-2.04 1.18-2.576.965.644-.536 1.288-1.02 1.932-1.45-1.184.43-1.933.54-2.255.323 3.434-2.038 8.425-4.883 14.973-8.533l-3.38.966c2.037-1.503 4.077-2.952 6.117-4.348 2.468-1.824 3.864-3.647 4.186-5.474.646-1.502.968-1.985.968-1.45zM32.2 88.55c-.322.108-.7.322-1.127.644-.966 2.898-2.254 7.192-3.864 12.88l.804.483L32.2 88.55zm-3.864 24.31l-.644.806-.483-.322.965-.966.16.483zm1.77-102.395h-.482v-1.61h.483v1.61zm2.255 89.677l-.965 1.77-.644-.16 1.128-1.77.483.16zm.967-14.33c-1.074.54-1.61.967-1.61 1.29h1.288c0-.537.106-.967.322-1.29zm-.644 2.094v-.644h-.966v.644h.966zm1.77-77.763h-.643l-.322-1.45h.483l.484 1.45zm1.772 79.534c-.644 0-1.127.377-1.45 1.127.214-1.072.537-1.877.967-2.415 0 .537.16.965.483 1.287zM37.995.644l-.32.483-.806-.805.32-.322.806.644zm-.32 65.688v-.966h-.645v.966h.644zm.32-1.127v-1.127h-.643v1.127h.644zm.323-1.288v-1.61h-.483v1.61h.483zm.644 1.288l-.483-.16-.484 1.126.483.162.482-1.127zm3.703-5.635l-.483 1.77H41.7l.32-1.77h.645zm.322-.644h-.644V57.8h.644v1.126zm3.864-8.533h-.482v-1.288h.483v1.288zm6.44-22.38h-.804V25.76h.805v2.254zm.162-11.752h-.483v-.965h.482v.966zm0 8.534h-.483v-8.21h.482v8.21zm3.864 87.745l-1.61.804v-.483l1.45-.804.16.483zm9.016-23.024c0-1.932-.86-4.292-2.576-7.084 0 .538-.108.913-.322 1.127-.108-.967-.913-2.175-2.415-3.624-1.505-1.45-2.738-2.334-3.704-2.657 6.01 4.83 8.8 10.198 8.372 16.1.428-1.394.644-2.682.644-3.864zM61.18 63.273l.483.483h1.127c-.43 0-.27-.214.483-.644.966.322 1.18.914.644 1.77-.538 1.184-.59 2.15-.16 2.9.535.32 1.18.913 1.93 1.77l2.416.483c1.072 0 1.394-.536.966-1.61.32-.214.804-1.34 1.448-3.38.428.43.697.643.805.643 1.394 0 2.093-.697 2.093-2.093 0-1.932-.913-2.898-2.737-2.898-.11 0-.243.08-.403.242-.16.16-.297.24-.403.24-.108 0-.43-.186-.966-.562-.54-.375-.86-.563-.966-.563-.538 0-1.45.377-2.737 1.127-.216.216-.7.59-1.45 1.127-.107 0-.16-.054-.16-.162 0-1.072-.43-1.61-1.288-1.61-.322 0-.7.322-1.127.966v1.77zm3.864 40.25l-.322-.322-3.06 3.22.162.323 3.22-3.22zm-1.127-37.996l.483-.16v.16l-.322.16-.16-.16z"/>
    <path d="M108.996 103.04c-.538.43-2.523 1.557-5.957 3.38.213.43.374.645.482.645.428 0 .805-.16 1.127-.483-.11.322-.162.538-.162.644-.216.108-.108.16.322.16.322 0 .536-.16.644-.482.322.644.428 1.344.322 2.093-.108.752-.27 1.235-.483 1.45-1.826.643-3.92 1.986-6.28 4.024-.107 0-.32-.105-.643-.32-.322-.215-.59-.323-.805-.323-.538-.106-1.45.27-2.737 1.127l-.16.966c-.753.322-1.397.7-1.933 1.127-.217.108-.108.16.322.16.428.11 1.127-.052 2.093-.482-.644.216-1.504.483-2.576.805-.322.43-.752.966-1.288 1.61-.644-.106-1.61-.106-2.898 0-1.183.644-2.31 1.182-3.38 1.61-1.397.86-2.31 1.77-2.738 2.737.106-.538-.055-1.127-.483-1.77-.752.538-1.127 1.126-1.127 1.77-.108.536-.055.966.16 1.288l-.643-.805c-.54.535-1.288 1.45-2.254 2.736-.108-.216-.322-.538-.644-.966-.967 0-1.505.483-1.61 1.45-.11.965-.162 1.77-.162 2.414v.483H74.38c0-.322.106-.645.323-.967v-1.127c.105-.32.053-.805-.16-1.448l-2.577 2.093c-1.394-.108-2.415-.86-3.06-2.254l-.965.805c0-.54-.16-1.022-.482-1.45-.105.105-.214.267-.322.483-.106.214-.214.375-.322.482 0-.43.27-1.182.805-2.254l-.484-.32c-.322.428-.697.91-1.127 1.448 0-.32.16-1.127.482-2.415.108-1.288-.214-1.932-.966-1.932-.322-.104-.91 0-1.77.323 0 .322.054.59.16.805l.805-.483c.323 0 .056.377-.804 1.127 0-.645-.267-1.233-.805-1.77 0-.106-.105-.054-.32.16v2.415c-.106-.645-.106-1.394 0-2.254-.106-.106-.376-.16-.806-.16-.214 0-.375.08-.483.24-.104.16-.213.242-.32.242.215-.105.35-.267.4-.483.057-.214.137-.375.243-.483-.428-.537-.91-1.073-1.45-1.61l1.45.965c.216-.214.108-.59-.322-1.127l3.22-4.186c-.105-.106-.374-.16-.804-.16.644 0-.536.32-3.542.965 1.074-.536 2.63-1.34 4.67-2.415v-.966c.215-.214.913-1.288 2.092-3.22.216-.214.833-.697 1.852-1.45 1.02-.75 1.53-1.448 1.53-2.092.643-.214 1.287-.644 1.93-1.288 6.01-12.772 10.68-29.57 14.008-50.393l.483-8.21c-1.72 10.197-2.685 16.1-2.9 17.71-1.503 6.76-3.22 12.504-5.15 17.226C82 64.666 83.72 54.63 84.04 50.55l.323.644c.105-.213.16-.483.16-.805.107-.213.107-.427 0-.643-.643.538-.965.644-.965.322 0-.106.08-.348.242-.725.16-.375.24-.725.24-1.047l.967-25.116c.105-3.434.75-6.332 1.932-8.694v-.644c.32-.214.804-.483 1.448-.805.105-.43.16-.698.16-.806H89.356c0 .216.106.54.322.966l-1.288 26.726c.322-1.18.858-5.527 1.61-13.04l-.16-7.085c.213-1.715.643-3.647 1.287-5.795.106.43.267.966.483 1.61.644-.536 1.02-1.663 1.127-3.38.75.43 1.34.643 1.77.643.214-.214.59-.644 1.128-1.288v1.288c.322.108 1.07.216 2.254.322.75.108 1.127 0 1.127-.322-.108.54-.055 1.02.16 1.45 0-.537.268-1.234.806-2.094.536-.858 1.02-1.232 1.45-1.127v.966c-.753.43-1.236.86-1.45 1.288l.16 1.128c.86-.322 1.825-1.18 2.9-2.576l-.323 2.576c0 1.074.697 1.665 2.093 1.77-.43.967-.7 1.827-.805 2.577-.108 1.288-.056 4.885.16 10.787l-.32 2.898c-.11 1.074.104 1.77.643 2.093l-1.61 15.134c-1.074 10.842-4.508 26.137-10.304 45.885 0 .216-.216.805-.644 1.77-.216.323-.27.54-.16.645.32-.214.696-.267 1.126-.16.214.107.644.59 1.288 1.448h.805c.643-.644 1.018-1.34 1.126-2.093 0 .108.105.377.322.805.428 0 .697-.214.805-.644-.322.644-1.235 1.45-2.737 2.415.966.216 1.715.322 2.254.322 2.576-.966 4.078-1.45 4.508-1.45.322 0 .697.243 1.127.726.428.483.697.725.805.725.214.11.428 0 .644-.32.214-.323.428-.428.644-.323 1.18.108 2.737.7 4.67 1.77l-.162 1.773zm-44.598 15.456l-.322-.322-.483.966.322.16.483-.804zm1.29 2.254c-.323-1.18-.43-2.146-.323-2.898-.214.216-.644 1.074-1.288 2.576.86 0 1.396.108 1.61.322zm-.646 4.83l-.483-.16.16-1.45.483.162-.16 1.448zm4.026-.644l-.644-.16-.322 1.448h.483l.483-1.288zm.483-18.676l-.482.644-.322-.16.483-.645.32.16zm7.245-16.583c-.322 1.288-1.343 3.542-3.06 6.762-.75.965-1.448 2.092-2.092 3.38.858-2.36 2.2-5.796 4.025-10.304l1.127.16zm1.77-9.338l-.482 1.126-.483-.16.322-1.128.644.16zm2.74-16.423h-.323l.16-.966.323.162-.16.805zm1.77-8.533l-.322 2.093-.483-.16.322-1.933h.483zm7.405 66.17c-1.718.967-3.49 2.2-5.313 3.704.428.857 1.072 1.34 1.932 1.448.213.106.427.106.643 0v-.32c-.108.965-.216 1.393-.322 1.287-.107-.108-.376-.108-.804 0l-.483.16c-.644-.644-.805-.966-.483-.966-.43-.32-1.45-.59-3.06-.805 2.577-1.825 5.206-3.327 7.89-4.507zM83.396 53.13l-.483-.16.16-2.416h.645l-.322 2.576zm1.933-14.49l.804-15.456c-.216-.106-.59 1.665-1.127 5.313.427 4.508.535 7.89.322 10.143zm4.99 80.017l.16-.644h-1.126l-.16.483 1.126.16zm1.61-22.38h-.322l-.966 1.45.322.322.966-1.772zm.644-2.897h-.483l-.804 2.254h.322l.966-2.254zm.966 5.796l-.322-.644-1.932 1.127v.643l2.254-1.127zm3.06 17.388l-.806.16v-.482l.805-.322v.644zm4.346 1.127c-.108 0-.297.082-.563.243-.27.16-.563.188-.886.08l-1.932-.16c.536-.428 1.18-.59 1.932-.483l1.45.32zm1.93-19.802l-.804 1.127-.322-.483.805-.966.322.322zm2.578-46.69l-.644-.16.16-1.61.645.16-.16 1.61zm0 47.334h-.644l.16-.966.484.16v.806zm.644-53.613h-.644l.16-1.61h.645l-.162 1.61zm2.576 57.315h-.483l-.482 1.288h.483l.484-1.288zM187.08 73.416c0 1.932-.805 4.777-2.414 8.533-.645 1.825-1.558 4.723-2.737 8.693-1.29 1.396-3.115 3.758-5.475 7.084l.805-1.61c.644-1.18.857-1.877.644-2.093-.86 1.183-2.04 3.114-3.542 5.796-.644.54-1.61 1.557-2.897 3.06-.645 1.182-1.558 2.897-2.737 5.15-2.792 3.973-5.904 7.193-9.338 9.66-5.904 4.403-9.82 6.603-11.753 6.603-.322 0-.805-.108-1.45-.322-.643-.216-1.073-.32-1.287-.32-.86 0-2.067.186-3.622.562-1.558.375-2.765.563-3.623.563-3.22 0-6.656-1.718-10.304-5.152l-3.22-.644c-.107.32-.16.75-.16 1.287 0 .538.053 1.182.16 1.932-1.073-1.395-2.522-3.22-4.346-5.475-.108-.536-.377-1.502-.805-2.898-.323-.214-.645-.428-.967-.644-.216-1.394-.54-3.542-.966-6.44.536-.644.805-1.127.805-1.45-1.074-2.467-1.77-4.56-2.093-6.278.32-.322.32-3.22 0-8.694.965-7.832 2.95-15.56 5.956-23.183 1.18-3.326 3.486-6.815 6.923-10.465 3.646-4.292 6.922-6.762 9.82-7.406.428 0 2.468-.858 6.118-2.576-7.406 3.006-13.31 7.675-17.71 14.007-.108.108 0 .322.322.644l.805-.643c-1.396 1.504-2.523 3.33-3.38 5.474l.643.323c3.326-4.614 8.747-9.5 16.26-14.65-.32 0-1.234.27-2.736.804 6.868-4.078 12.18-6.063 15.94-5.957-.11 0-.323.16-.645.483.32.216.696.322 1.127.322.535 0 1.34-.106 2.415-.322 1.07-.214 1.875-.322 2.413-.322.322 0 1.047.378 2.174 1.128 1.127.752 1.796 1.127 2.013 1.127.428 0 .616-.08.563-.242-.056-.16.025-.24.24-.24.323.107.778.457 1.37 1.045.588.59 2.173 2.334 4.75 5.232.427.966 1.5 2.254 3.22 3.864l.644-.644c-.752-.322-1.047-.75-.886-1.288.162-.536.026-.966-.4-1.288 1.715 0 3.003.377 3.863 1.127.644-.75.966-1.23.966-1.448.427 1.182 1.287 2.415 2.575 3.703.75.86 1.876 3.598 3.38 8.21 0 .43.054 1.128.162 2.094.214.43.696.86 1.448 1.287.643.967.966 1.933.966 2.9zM132.34 56.35l-2.093 2.254-.16-.483 1.93-1.93.323.16zm2.576-1.61l-2.093 1.61-.16-.644 1.93-1.45.323.484zm25.6 15.456c-1.075-1.61-1.72-2.842-1.933-3.703-1.396.966-3.65 2.792-6.763 5.474.106-.644.536-1.45 1.288-2.415C148.17 75.67 144.576 82.488 142.32 90c-.43-.645-.698-.967-.804-.967-.752 0-1.477 1.288-2.174 3.864-.7 2.576-1.046 4.402-1.046 5.474 0 2.15.482 4.94 1.45 8.373 4.29-1.18 8.424-4.347 12.395-9.5 3.97-5.15 5.902-9.82 5.797-14.006.428.216.75-.105.966-.966l.483-1.126c-.86-.322-1.77-.697-2.737-1.127.105-.536.16-.966.16-1.288 0-1.073-1.718-2.04-5.15-2.9l4.023-.16c.536.216 1.288.7 2.254 1.45.105-.323.267-.698.483-1.128-.645 0-1.02-.053-1.127-.16.535-.537.75-.967.644-1.29-.43-.32-1.02-.75-1.77-1.287 1.608-.536 2.68-1.232 3.22-2.093-.323-.428-.753-.91-1.29-1.45.323 0 .75.082 1.29.243.537.16.912.24 1.128.24zm-14.33-23.506h-.966v-.644h.966v.644zm6.923.16c-1.183.323-3.598 1.128-7.246 2.416h1.45c.644.108 2.575-.697 5.795-2.415zm-4.83-.965h-.967v-.644h.966v.645zm7.083 34.615h-.805v-.644h.805v.644zm28.658-26.404h-.643v-1.45h.644v1.45zM302.193 96.6c-2.254 1.718-5.582 4.025-9.98 6.923v1.45c.856.537 1.393.804 1.61.804.643 0 1.58-.186 2.816-.563 1.23-.375 2.172-.616 2.816-.725-1.396 1.073-3.328 2.36-5.796 3.863l-3.703 1.45c-1.72.643-3.007 1.557-3.864 2.736h.322c.105.107.32.16.644.16.965-.106 4.13-1.77 9.498-4.99l1.127.32-21.896 11.754.32.322c2.36-.214 7.138-1.072 14.33-2.576.213.217.535.43.966.644l-25.922 10.143c.967.428 2.038.59 3.22.483 2.47-.217 10.035-2.846 22.702-7.89 1.823-.75 3.702-1.77 5.635-3.058.106.538.268.913.483 1.127.322-.215.59-.323.806-.323-7.193 3.22-16.854 7.083-28.98 11.59-6.87 2.577-13.15 4.83-18.838 6.764-.538.43-.752.806-.644 1.128l-.645-.645c-.322.536-1.02 3.112-2.093 7.73.322.104.697 0 1.127-.323-.322.214-.7.59-1.127 1.127-4.725 18.354-9.285 32.467-13.685 42.342-.54.858-1.988 2.415-4.348 4.67-.108 0-.402-.08-.886-.243-.48-.16-.884-.24-1.206-.24-.322.105-1.02.725-2.093 1.852-1.073 1.126-1.77 1.74-2.093 1.85-2.897 1.716-4.938 2.63-6.117 2.737l-1.77.322c0-.11.052-.27.16-.483l-.16-.807c-.11-.86-.914-1.557-2.416-2.092l-1.127.643c.105-1.18-.056-2.145-.482-2.895-1.183-2.254-1.77-3.598-1.77-4.025l.482-1.29c-.217-3.647-.43-9.23-.645-16.742 0 .535.375.805 1.127.805l.32-1.288c-.43-3.65.484-7.515 2.738-11.592.966-1.505 2.682-4.508 5.15-9.017 1.073-1.826 3.865-4.99 8.373-9.5.215-.106.43-.643.646-1.608-.217-.322-.43-.483-.645-.483.43-.108.75-.377.967-.805-.216-.217-.482-.27-.805-.16-.752.104-2.2.856-4.347 2.253.214.105.59.16 1.127.16-2.04.645-4.67 2.2-7.89 4.67-8.693 6.762-13.632 14.65-14.812 23.667-.966 6.762-1.396 10.678-1.288 11.752.214 1.29.59 2.416 1.127 3.38.213.538.104 1.556-.323 3.062-.752 0-1.396-.217-1.932-.645-.644-.968-1.288-2.202-1.932-3.704l-2.254-12.558c-.754-4.725.426-10.843 3.54-18.354 2.47-6.117 5.258-11.003 8.373-14.65.75-1.074 2.093-2.576 4.024-4.508 1.07-.86 2.63-1.987 4.67-3.382.32-2.04 1.393-3.65 3.22-4.83 2.79-1.182 6.762-3.003 11.913-5.474-.107-.322-.107-.885 0-1.69.106-.805.16-1.313.16-1.53 0-.32-.107-.588-.32-.804-1.933 1.074-4.134 1.987-6.602 2.737-.86 1.074-1.504 1.666-1.932 1.77-.217 0-.458-.052-.725-.16-.27-.106-.51-.106-.724 0-.538 0-3.22 1.343-8.05 4.024 2.037-1.07 4.99-2.79 8.854-5.15.322-.43.966-1.02 1.933-1.772l7.245-1.77c.105-.323.374-1.342.805-3.06l-.645-2.254c-.43.43-.59.914-.482 1.45l-.645-.483c-.215.216-.32.538-.32.966-.217 0-.54-.214-.967-.644-.216 0-.43.16-.644.482.104.644.535.913 1.287.805-1.826.43-4.508.966-8.05 1.61.644.216 1.502.43 2.575.644-5.903-.856-9.338-1.23-10.304-1.126-.43.108-1.102.297-2.013.563-.913.27-1.584.458-2.012.563-2.148.216-4.806-.483-7.97-2.093-3.167-1.61-5.502-3.38-7.004-5.313-.322-1.072-1.236-2.79-2.737-5.152.32.216.588.27.805.16.322-.426.482-.856.482-1.287-.107-.644-.618-1.77-1.53-3.38-.912-1.61-1.367-2.738-1.367-3.382l-.483-3.864c2.36-6.12 4.025-10.788 4.99-14.008-1.93 10.412-2.896 15.456-2.896 15.134 0 .644.214 1.288.644 1.932.105-1.394 1.34-5.957 3.703-13.685.75-2.254 2.36-4.722 4.83-7.406.43-1.072 3.918-5.957 10.466-14.65-.966 1.61-2.04 3.166-3.22 4.668-1.183 2.254-1.61 3.92-1.288 4.99 2.254-3.646 6.063-8.798 11.43-15.455-3.005 3.65-5.634 7.406-7.888 11.27.105.217.267.322.482.322l10.787-12.72c-.11.54-.806 1.667-2.094 3.382l1.288-.16c-.86.537-1.396 1.342-1.61 2.414 3.756-3.648 7.834-5.74 12.236-6.28 2.254-.212 4.186 0 5.796.645l.805-2.093c0 .86-.054 1.557-.16 2.093 3.435 1.074 6.332 2.254 8.694 3.542l1.288-.644-.16-1.61c-.753-.535-1.183-.804-1.29-.804-.32 0-.48.27-.48.805-.323-.643-1.988-1.07-4.992-1.287l2.093-.16c3.542-.43 6.332.965 8.372 4.185-.216.216-.43.322-.644.322-.216 0-.43-.16-.644-.483l-.805 1.127c.43.538 1.29 1.127 2.577 1.77.105-.32.32-.804.644-1.448.215 1.504.106 2.47-.32 2.898 0 .538.588 1.02 1.77 1.45-.108-.645.105-1.395.644-2.255.322.43.858 1.126 1.61 2.092l.966-.16c.322-1.18 1.02-2.952 2.093-5.314.645.752.858 1.396.645 1.932l-.645 1.288.483 4.186c.536.43.857.644.966.644.428-.105.725-.267.886-.483.16-.214.294-.322.402-.322.858 1.183 1.34 1.932 1.45 2.254l.16 1.77c.105.753.214 1.29.32 1.61.323 3.437-1.556 10.413-5.634 20.93-.538 1.505-.644 3.116-.32 4.83-.323 2.363-.86 6.066-1.61 11.11 1.287.538 2.628.7 4.023.483-.43.108 1.02-.428 4.347-1.61 0 .217-.028.54-.08.966-.056.43-.08.7-.08.805.535.323.91.484 1.126.484.322 0 .805-.16 1.45-.483.643-.32 1.126-.482 1.448-.482H270.63c1.394-.105 3.004-.644 4.83-1.61-.966.322-1.718.913-2.254 1.77.536.43 1.18.592 1.932.484.75 0 1.933-.75 3.542-2.254.105.54.536.752 1.288.644.75-.105 1.824-.456 3.22-1.046 1.395-.59 2.415-.938 3.06-1.047.214 0 .455.027.725.08.268.056.51.08.726.08 3.97-.427 7.298-2.092 9.98-4.99.215.108.807.59 1.772 1.45.32-.106.91-.484 1.77-1.128l.975.158zm-100.785 61.502l-.645-.16-.482 1.126h.806l.322-.966zm21.252-23.99c-4.51 2.577-7.462 4.4-8.855 5.476-3.114 2.575-5.635 5.58-7.566 9.016-.646.75-1.56 1.877-2.738 3.38-.645 1.395-1.235 3.113-1.77 5.153 2.037-3.328 3.54-5.69 4.508-7.084 1.61-2.576 3.38-4.777 5.313-6.602 1.288-.86 2.737-2.092 4.347-3.702.645-.86 1.852-1.85 3.623-2.98 1.768-1.126 2.814-2.01 3.137-2.655zm-15.78-6.922l-2.575 2.898-.482-.645 2.736-2.576.32.323zm38.32-72.128c-.108-1.288-1.235-2.2-3.382-2.737-2.792-.644-4.455-1.18-4.99-1.61-.322 2.148-.913 5.152-1.77 9.016.104-.75.374-3.702.804-8.854l-2.736.322c-6.013.644-11.647 5.69-16.905 15.134-.643 1.182-1.395 2.576-2.253 4.186-5.26 11.486-7.728 18.784-7.406 21.896.106.43.323.805.646 1.127.32.323.535.54.644.645.105-.858.59-2.146 1.45-3.864l.804.645c-.752.216-1.182.644-1.288 1.288v1.932c1.288 1.074 2.2 1.557 2.737 1.45h1.127c.214-1.395.645-2.9 1.288-4.51.105-.32.322-.482.644-.482s.59.108.806.322l-1.45 4.83 5.797-.644c2.36-.213 6.28-2.092 11.753-5.634 0-.322.105-.644.322-.966.214.216.322.483.322.805.644-.75.857-1.716.644-2.898 0 .216-.216.644-.644 1.288l-.645-.644c.428-2.037 1.502-7.727 3.22-17.065 0 .322-.16.538-.482.644-.43-1.503-.27-4.992.482-10.466l.645.483c-.538 3.76-.645 6.762-.322 9.016.105-7.406 1.34-12.18 3.703-14.33.428.86.91 1.828 1.45 2.9.534-.75 1.34-1.825 2.414-3.22.644 1.395.91 2.36.805 2.897 1.284-1.502 1.873-2.468 1.768-2.898zM208.008 96.6l-.644-.16-.322.965.644.16.322-.965zm3.542 27.048l-4.186 3.38-.322-.643 4.186-3.22.322.483zm-1.61-59.892c-.216-.322-.43-.588-.644-.805-.538 1.075-.913 1.772-1.127 2.094.427 0 1.018-.428 1.77-1.288zM213 98.854l-.16-1.127c-.646-.322-2.202-.644-4.67-.966.428.54.696 1.397.805 2.577l4.025-.483zm-4.026 61.34c.214 1.934.053 2.9-.482 2.9-.108.104-.217.052-.322-.162l.644-.483c0-.323.052-1.075.16-2.255zm4.187-7.888l-1.61 2.254-.482-.16 1.45-2.416.643.322zm16.745-6.6h-.645c-1.61.857-2.685 1.715-3.22 2.575-.217 1.073-.538 2.47-.966 4.188-.54 1.394-1.235 3.486-2.094 6.278-.216-.216-.27-.43-.16-.644.32-1.288 1.127-4.616 2.414-9.982-4.186 2.038-8.104 6.815-11.753 14.33-.537 1.18-.804 2.79-.804 4.83-.43 2.037-.59 3.22-.483 3.54 0 .323.16.86.483 1.61.322.75.536 1.29.645 1.61.645-2.47 1.716-5.69 3.22-9.66.106.322-.32 2.47-1.287 6.44-.43.858-.752 1.933-.966 3.22-.322 3.112-.322 6.225 0 9.338.214 1.932.482 3.326.805 4.186l1.61-.16c1.18-.11 1.984-.592 2.415-1.45.32-1.286.696-2.522 1.127-3.702-.54 0-.806-.217-.806-.645.322-.215.536-.27.645-.16.428.322.75.482.966.482-.218-.218-.378-.483-.484-.806l.967-1.287c.428-.86.588-1.828.482-2.898-.216 0-.43-.058-.644-.163.645-.537 1.824-3.058 3.543-7.566 1.288-2.36 2.037-5.582 2.254-9.66l-1.127.162c.966-3.22 2.254-7.89 3.865-14.007zm1.448-51.843l-.16-1.45-.967.806c-.966.107-2.2.537-3.703 1.287 0 .322-.216.7-.644 1.127-3.007.86-5.475 1.396-7.407 1.61-1.61.108-3.006.16-4.186.16-.54 1.184-.753 1.933-.645 2.255l4.99-.484c2.255-.213 5.367-1.232 9.34-3.06.75-.643 1.877-1.393 3.38-2.253zm-8.21 109.48l-1.29 1.128c0 .214.162.483.484.806-1.396.322-3.864 1.232-7.406 2.736 3.22-3.113 5.58-4.777 7.085-4.99l1.127.322zm-5.475-146.832l-.483-.482-1.127 1.45.483.482 1.128-1.45zm4.025 148.283l-.644-.484-.323.32.483.646.483-.483zm.483-42.344l-.322 1.126-.644-.32.322-.968.644.16zm.16-1.61l-.32 1.126-.483-.16.32-.967h.484zm7.57-17.55c.104-.216-.057-.59-.484-1.127-1.183.858-2.148 1.877-2.898 3.06 1.932-.753 3.06-1.397 3.38-1.933zm1.93 60.858c-.43.428-.966.697-1.61.805-.32 0-.86-.43-1.61-1.29.106 0 .268.083.483.243.213.162.508.242.885.242h1.851zm17.066-150.213c-.107-.428-.377-1.127-.805-2.093-.216.43-.27 1.288-.16 2.576.213-.214.535-.375.965-.483zm14.008 71.484l-.16-.646-1.128.16.16.645 1.128-.16zm2.736-53.614l-1.127 1.77-.645-.32 1.127-1.772.644.322zm-.32-9.177l-1.128.643v-.483l.805-.644.322.483z"/>
  </g>
</svg>
