<svg xmlns="http://www.w3.org/2000/svg" width="23" height="16.391" viewBox="0 0 23 16.391">
  <path fill="#00BEA4" d="M22.632 14.85l-6.476-7.02 6.48-6.494c.135-.135.364-.04.364.15v13.22c0 .194-.238.287-.368.145zM12.74 11.25c-.37.373-.875.582-1.402.582h-.016c-.535 0-1.05-.212-1.43-.59L7.976 9.322l-6.587 6.705c-.132.135-.037.362.15.362h20c.188 0 .284-.222.16-.357L15.1 8.883l-2.36 2.365zm-1.42-.906c.143 0 .276-.057.377-.156L21.502.364c.134-.135.04-.364-.15-.364H1.258c-.19 0-.285.23-.15.363l9.838 9.82c.1.103.234.16.374.16zM0 1.876v12.918c0 .19.23.285.365.148l6.555-6.67L.363 1.725C.23 1.593 0 1.688 0 1.876z"/>
</svg>
