<svg xmlns="http://www.w3.org/2000/svg" width="22.012" height="17.295" viewBox="0 0 22.012 17.295">
  <path fill="#00BFA5" d="M19.91 5.33c-1.915 1.328-3.844 2.654-5.747 3.993-.8.553-2.15 1.683-3.145 1.683h-.025c-.995 0-2.346-1.13-3.145-1.683-1.903-1.34-3.83-2.665-5.735-3.992C1.24 4.74 0 3.355 0 2.236 0 1.032.65 0 1.965 0h18.082c1.068 0 1.965.884 1.965 1.965 0 1.376-1.02 2.617-2.1 3.366zm2.102 10c0 1.08-.885 1.965-1.965 1.965H1.965C.885 17.295 0 16.41 0 15.33V5.577c.37.405.786.762 1.24 1.07 2.04 1.387 4.104 2.775 6.105 4.236 1.032.762 2.31 1.695 3.648 1.695h.025c1.34 0 2.616-.934 3.647-1.695 2.003-1.45 4.066-2.85 6.117-4.237.442-.307.86-.664 1.23-1.07v9.754z"/>
</svg>
