<svg xmlns="http://www.w3.org/2000/svg" width="50" height="50" viewBox="0 0 50 50">
  <g fill="#FFF">
    <path d="M30.5 24.5c-1.03 0-2.016.188-3.047.328-.812.125-1.625.172-2.453.172s-1.64-.047-2.453-.172c-1.016-.14-2.016-.328-3.047-.328-2.547 0-4 2.11-4 4.5 0 4.78 4.375 5.516 8.188 5.516h2.625c3.813 0 8.188-.734 8.188-5.516 0-2.39-1.453-4.5-4-4.5zM20 32c-1.406 0-2-1.86-2-3s.594-3 2-3 2 1.86 2 3-.594 3-2 3zm10 0c-1.406 0-2-1.86-2-3s.594-3 2-3 2 1.86 2 3-.594 3-2 3z"/>
    <path d="M25 0C11.192 0 0 11.193 0 25s11.192 25 25 25 25-11.193 25-25S38.808 0 25 0zm12.047 31.422C34.984 35.594 29.313 36 25.25 36c-4.125 0-10.14-.36-12.28-4.578-.798-1.578-.97-3.438-.97-5.172 0-2.28.625-4.438 2.125-6.188-.28-.86-.422-1.766-.422-2.656 0-1.172.266-2.344.797-3.406 2.47 0 4.047 1.078 5.922 2.547C22 16.172 23.625 16 25.25 16c1.47 0 2.953.156 4.375.5 1.86-1.453 3.438-2.5 5.875-2.5.53 1.063.797 2.234.797 3.406 0 .89-.14 1.78-.422 2.625 1.5 1.767 2.125 3.94 2.125 6.22 0 1.734-.172 3.578-.953 5.172z"/>
  </g>
</svg>
