<svg xmlns="http://www.w3.org/2000/svg" width="26" height="22" viewBox="0 0 26 22">
  <path fill="#FFF" d="M25.047 17.422C22.984 21.594 17.313 22 13.25 22 9.125 22 3.11 21.64.97 17.422.17 15.844 0 13.984 0 12.25c0-2.28.625-4.438 2.125-6.188-.28-.86-.422-1.765-.422-2.656 0-1.172.266-2.343.797-3.406 2.47 0 4.047 1.078 5.922 2.547C10 2.172 11.625 2 13.25 2c1.47 0 2.953.156 4.375.5C19.485 1.047 21.063 0 23.5 0c.53 1.063.797 2.234.797 3.406 0 .89-.14 1.78-.422 2.625C25.375 7.798 26 9.97 26 12.25c0 1.734-.172 3.578-.953 5.172zM18.5 10.5c-1.03 0-2.016.188-3.047.328-.812.125-1.625.172-2.453.172s-1.64-.047-2.453-.172C9.53 10.688 8.53 10.5 7.5 10.5c-2.547 0-4 2.11-4 4.5 0 4.78 4.375 5.516 8.188 5.516h2.625c3.813 0 8.188-.734 8.188-5.516 0-2.39-1.453-4.5-4-4.5zM8 18c-1.406 0-2-1.86-2-3s.594-3 2-3 2 1.86 2 3-.594 3-2 3zm10 0c-1.406 0-2-1.86-2-3s.594-3 2-3 2 1.86 2 3-.594 3-2 3z"/>
</svg>
