<svg xmlns="http://www.w3.org/2000/svg" width="24" height="22.938" viewBox="0 0 24 22.938">
  <path fill="#FFF" d="M2.875 5.344h-.03C1.108 5.344 0 4.156 0 2.672 0 1.156 1.156 0 2.906 0c1.766 0 2.86 1.156 2.875 2.672.017 1.484-1.108 2.672-2.905 2.672zm2.578 17.594H.297V7.453h5.156v15.485zm18.547 0h-5.14v-8.28c0-2.08-.75-3.5-2.61-3.5-1.422 0-2.266.952-2.64 1.874-.126.344-.173.797-.173 1.266v8.64h-5.14c.063-14.03 0-15.483 0-15.483h5.14v2.25h-.03c.672-1.063 1.89-2.61 4.672-2.61 3.39 0 5.92 2.22 5.92 6.97v8.873z"/>
</svg>
