<svg xmlns="http://www.w3.org/2000/svg" width="50" height="50" viewBox="0 0 50 50">
  <path fill="#FFF" d="M25 0C11.192 0 0 11.193 0 25s11.192 25 25 25 25-11.193 25-25S38.808 0 25 0zm-5.547 34.136h-5.156V18.65h5.156v15.486zm-2.578-17.594h-.03C15.11 16.542 14 15.354 14 13.87c0-1.516 1.156-2.672 2.906-2.672 1.766 0 2.86 1.156 2.875 2.672.017 1.484-1.108 2.672-2.905 2.672zM38 34.136h-5.14v-8.28c0-2.08-.75-3.5-2.61-3.5-1.422 0-2.266.952-2.64 1.874-.126.344-.173.797-.173 1.266v8.64h-5.14c.062-14.03 0-15.483 0-15.483h5.14v2.204c.678-1.06 1.898-2.563 4.64-2.563 3.392 0 5.923 2.22 5.923 6.97v8.872z"/>
</svg>
