<svg xmlns="http://www.w3.org/2000/svg" width="19.125" height="19.125" viewBox="0 0 19.125 19.125">
  <path fill="#FFF" d="M18.13 16.44l-1.724 1.712c-.633.633-1.488.973-2.38.973-.9 0-1.757-.352-2.39-.996l-2.414-2.427c-.632-.633-.972-1.488-.972-2.38 0-.925.375-1.804 1.03-2.448l-1.03-1.03c-.645.655-1.512 1.03-2.438 1.03-.89 0-1.758-.352-2.39-.984L.983 7.454C.34 6.81 0 5.965 0 5.063c0-.89.363-1.758.996-2.38L2.72.974C3.35.34 4.206 0 5.097 0 6 0 6.855.352 7.488.996l2.414 2.426c.633.633.973 1.488.973 2.38 0 .925-.375 1.804-1.03 2.448l1.03 1.03c.645-.655 1.512-1.03 2.438-1.03.89 0 1.758.352 2.39.984l2.44 2.438c.644.645.983 1.488.983 2.39 0 .89-.364 1.758-.997 2.38zM8.31 5.005L5.894 2.578c-.21-.21-.504-.328-.797-.328s-.586.117-.797.316L2.58 4.276c-.21.212-.328.494-.328.787 0 .305.117.586.328.797l2.438 2.438c.21.21.504.315.797.315.34 0 .61-.117.844-.363-.387-.387-.844-.715-.844-1.312 0-.62.504-1.125 1.125-1.125.598 0 .926.457 1.313.844.247-.234.388-.504.388-.855 0-.294-.118-.587-.33-.798zm8.237 8.262l-2.438-2.438c-.212-.21-.505-.328-.798-.328-.34 0-.61.13-.844.375.387.387.844.715.844 1.313 0 .62-.504 1.125-1.125 1.125-.598 0-.926-.457-1.313-.844-.246.233-.387.503-.387.854 0 .293.117.586.328.797l2.414 2.427c.21.21.503.316.796.316s.586-.105.797-.305l1.723-1.71c.21-.212.328-.493.328-.786 0-.304-.116-.585-.327-.796z"/>
</svg>
