<svg xmlns="http://www.w3.org/2000/svg" width="15.151" height="21.654" viewBox="0 0 15.151 21.654">
  <g fill="#00BEA4">
    <path d="M11.004 7.835c0-1.883-1.538-3.414-3.43-3.414-1.89 0-3.43 1.532-3.43 3.415 0 1.884 1.54 3.42 3.43 3.42 1.892 0 3.43-1.536 3.43-3.42z"/>
    <path d="M7.574 21.654l1.388-1.817c1.455-1.925 6.19-8.47 6.19-12.05C15.15 3.133 12.105 0 7.573 0 3.044 0 0 3.132 0 7.788c0 3.854 5.56 11.223 6.192 12.05l1.382 1.816zM2.792 7.834c0-2.627 2.146-4.77 4.782-4.77 2.64 0 4.785 2.143 4.785 4.77 0 2.63-2.147 4.772-4.786 4.772-2.636 0-4.782-2.14-4.782-4.77z"/>
  </g>
</svg>
