<svg xmlns="http://www.w3.org/2000/svg" width="16.897" height="15.984" viewBox="0 0 16.897 15.984">
  <path fill="#C4CBCD" d="M15.743 12.078c-.26 0-1.074-.943-1.285-1.154l-.964.964 2.21 2.21c.18.18.28.43.28.682 0 .563-.643 1.205-1.205 1.205-.252 0-.503-.1-.684-.28L7.36 8.964c-1.055.784-2.34 1.316-3.665 1.316C1.505 10.28 0 8.766 0 6.587 0 3.293 3.293 0 6.586 0c2.18 0 3.695 1.506 3.695 3.695 0 1.325-.53 2.61-1.314 3.665l3.564 3.564.964-.964c-.21-.21-1.154-1.024-1.154-1.285 0-.23.924-1.155 1.154-1.155.08 0 .17.04.23.1.372.373 3.173 3.013 3.173 3.304 0 .23-.923 1.154-1.154 1.154zM6.426 1.928c-1.064 0-1.928.863-1.928 1.928 0 .29.07.572.19.833-.26-.122-.542-.192-.833-.192-1.064 0-1.928.863-1.928 1.928s.863 1.928 1.928 1.928 1.928-.864 1.928-1.928c0-.29-.07-.572-.19-.833.26.12.542.19.833.19 1.064 0 1.928-.862 1.928-1.927S7.49 1.928 6.426 1.928z"/>
</svg>
