<svg xmlns="http://www.w3.org/2000/svg" width="16.492" height="20.947" viewBox="0 0 16.492 20.947">
  <path fill="#00BEA4" d="M7.858 17.102c-1.523-1.127-3.018-2.677-4.328-4.48C1.832 10.277.647 7.776.196 5.578-.002 4.605-.052 3.715.056 3c.112-.76.397-1.328.83-1.644.116-.083.235-.173.36-.27C1.952.544 2.834-.13 3.806.023c.718.114 1.345.65 1.906 1.635.722 1.27.95 2.16.724 2.894-.21.69-.78 1.093-1.38 1.523-.068.05-.137.1-.21.15-.208.152-.143.666.173 1.374.314.71.88 1.628 1.675 2.726 1.84 2.538 2.724 3.013 3.086 3.07.126.02.19-.013.232-.043.072-.05.142-.102.21-.15.663-.488 1.29-.948 2.133-.813.678.107 1.398.605 2.27 1.563.736.813 1.05 1.548.97 2.244-.116 1.017-1.058 1.662-1.813 2.182-.13.09-.258.177-.372.26-.42.307-1.034.406-1.77.29-1.097-.175-2.442-.823-3.782-1.828z"/>
  <path fill="#00BEA4" d="M15.712 20.623c-.26-1.595-1.768-2.657-1.78-2.667-.177-.126-.22-.37-.1-.546.123-.18.367-.224.547-.103.07.053 1.79 1.26 2.107 3.188.035.212-.11.415-.32.447-.044.006-.085.007-.126 0-.16-.025-.294-.15-.328-.32z"/>
</svg>
