<svg xmlns="http://www.w3.org/2000/svg" width="18.864" height="18.863" viewBox="0 0 18.864 18.863">
  <path fill="#00BFA5" d="M18.448 16.76c-.28.656-1.03 1.086-1.634 1.42-.79.43-1.595.684-2.492.684-1.246 0-2.37-.51-3.51-.924-.817-.295-1.608-.657-2.345-1.112-2.278-1.407-5.024-4.153-6.43-6.43-.456-.74-.818-1.53-1.113-2.346C.51 6.912 0 5.788 0 4.542 0 3.644.254 2.84.683 2.05c.335-.603.764-1.353 1.42-1.634C2.545.214 3.483 0 3.965 0c.095 0 .188 0 .282.04.28.094.576.75.71 1.02.43.763.844 1.54 1.286 2.29.214.35.616.777.616 1.192 0 .817-2.426 2.01-2.426 2.733 0 .36.335.83.522 1.152 1.353 2.438 3.04 4.126 5.48 5.48.32.187.79.52 1.15.52.725 0 1.917-2.424 2.734-2.424.415 0 .844.402 1.192.616.75.44 1.527.856 2.29 1.285.27.134.925.43 1.02.71.04.094.04.188.04.28.002.485-.213 1.423-.414 1.865z"/>
</svg>
