<svg xmlns="http://www.w3.org/2000/svg" width="45" height="45" viewBox="338.678 110.5 45 45">
  <path fill="#FFF" d="M361.178 110.5c-12.427 0-22.5 10.073-22.5 22.5s10.073 22.5 22.5 22.5 22.5-10.073 22.5-22.5-10.074-22.5-22.5-22.5zm13.433 31.703c-1.033 1.6-1.933 3.26-6.257 3.358-4.418.005-8.99-3.654-12.318-7.306-3.323-3.232-6.396-7.408-6.394-11.457.1-4.324 1.76-5.224 3.36-6.258 0 0 .877-.37 1.64.294.762.663 4.103 4.005 4.103 4.005s1.188.99.37 2.088c-.653.874-2.158 2.484-2.355 2.696l.564 1.063c.755 1.244 2.194 3.43 4.35 5.2 1.452 1.196 3.91 2.507 3.91 2.505.353-.33 1.822-1.69 2.64-2.3 1.098-.82 2.088.366 2.088.366s3.342 3.343 4.006 4.105c.663.764.295 1.64.295 1.64z"/>
</svg>
