<svg xmlns="http://www.w3.org/2000/svg" width="600" height="600" viewBox="0 0 600 600">
  <g fill="#333">
    <path d="M298.473 298.13c-3.38-.838-1.53-3.79 1.21-3.745 2.657.043 4.01 2.907 5.214 2.76 1.208-.15 2.236-1.995.338-3.646-1.643-1.43-3.718-2.22-6.907-1.923-2.502.232-4.878 1.873-5.168 5.074-.29 3.204 3.43 4.83 6.377 5.274 2.064.31 4.88 1.33 3.19 3.3-1.555 1.812-4.494.69-5.267.2-.773-.496-1.644-2.27-3.094-2.17-1.452.096-2.166 2.04-.385 3.743 1.596 1.526 3.335 2.364 7.053 2.167 3.722-.198 7.054-3.546 5.75-6.7-1.304-3.153-4.926-3.496-8.31-4.334z"/>
    <path d="M300 277.5c-12.427 0-22.5 10.073-22.5 22.5 0 12.426 10.073 22.5 22.5 22.5s22.5-10.074 22.5-22.5c0-12.427-10.073-22.5-22.5-22.5zm5.756 35.23c-1.353 0-2.616-.395-3.688-1.068-.69.127-1.4.198-2.13.198-6.457 0-11.687-5.282-11.687-11.798 0-.63.05-1.253.146-1.86-.71-1.108-1.124-2.43-1.124-3.852 0-3.91 3.12-7.078 6.975-7.078 1.405 0 2.71.423 3.81 1.15.612-.104 1.242-.157 1.883-.157 6.455 0 11.688 5.284 11.688 11.8 0 .54-.04 1.074-.11 1.6.766 1.135 1.212 2.508 1.213 3.987 0 3.91-3.12 7.077-6.974 7.077z"/>
  </g>
</svg>
