<svg xmlns="http://www.w3.org/2000/svg" width="24" height="24" viewBox="0 0 24 24">
  <path fill="#00BFA5" d="M18 24c-1.375 0-2.64-.47-3.656-1.25-.75.156-1.547.25-2.344.25-6.078 0-11-4.922-11-11 0-.797.094-1.594.25-2.344C.47 8.64 0 7.376 0 6c0-3.313 2.688-6 6-6 1.375 0 2.64.47 3.656 1.25C10.406 1.094 11.203 1 12 1c6.078 0 11 4.922 11 11 0 .797-.094 1.594-.25 2.344C23.53 15.36 24 16.624 24 18c0 3.313-2.687 6-6 6zm-4.53-13.547l-1.626-.375c-1.188-.28-2.078-.484-2.078-1.39 0-.83.875-1.204 2.25-1.204 2.453 0 2.5 1.797 4.016 1.797 1.016 0 1.625-.796 1.625-1.702 0-1.797-2.984-2.97-5.938-2.97-2.704 0-5.845 1.173-5.845 4.345 0 2.625 1.75 3.563 4.03 4.11l2.282.562c1.39.344 2.25.5 2.25 1.5 0 .797-.89 1.406-2.266 1.406-2.89 0-3.046-2.405-4.718-2.405-1.094 0-1.578.78-1.578 1.64 0 1.923 2.938 3.485 6.453 3.485 2.938 0 6-1.47 6-4.64 0-2.72-2.64-3.657-4.858-4.157z"/>
</svg>
