<svg xmlns="http://www.w3.org/2000/svg" width="238.892" height="238.892" viewBox="0 0 238.892 238.892">
  <g fill="#FFF">
    <path d="M153.768 80.32c-24.978 15.69-49.925 31.424-74.885 47.138-2.01 1.265-3.1 2.873-2.306 5.315 3.593 11.024 7.19 22.047 10.786 33.07.5-.156 1-.315 1.5-.47.507-4.21 1.618-8.457 1.392-12.625-.417-7.655 2.813-12.654 8.52-17.603 18.474-16.013 36.43-32.62 54.503-49.092 1.763-1.607 4.662-2.638 4.417-5.828-1.457-.87-2.812-.607-3.927.094z"/>
    <path d="M119.446 0C53.478 0 0 53.478 0 119.446c0 65.968 53.478 119.446 119.446 119.446 65.97 0 119.446-53.478 119.446-119.446C238.892 53.478 185.415 0 119.446 0zm57.905 106.34c-4.965 23.363-9.877 46.743-14.94 70.087-2.393 11.035-6.963 12.814-16.078 6.277-9.5-6.81-18.968-13.68-28.177-20.872-3.726-2.91-6.225-2.8-9.403.636-4.322 4.678-8.872 9.194-13.712 13.33-5.623 4.802-9.284 3.637-11.64-3.366-3.894-11.572-7.787-23.15-11.383-34.818-1.222-3.968-3.213-6.233-7.325-7.354-8.188-2.235-16.3-4.803-24.314-7.607-3.746-1.31-9.78-1.084-9.62-6.55.143-4.826 5.654-5.792 9.518-7.294C66.26 98.706 92.284 88.71 118.3 78.69c18.83-7.256 37.63-14.584 56.51-21.705 6.856-2.587 11.2.4 11.275 8.174-2.79 13.148-5.753 27.165-8.734 41.18z"/>
  </g>
</svg>
