<svg xmlns="http://www.w3.org/2000/svg" width="30.011" height="17.123" viewBox="0 0 30.011 17.123">
  <path fill="#FFF" d="M27.625 5.832c-3.03 4.03-3.36 3.656-.86 5.984 2.407 2.234 2.907 3.313 2.985 3.453 0 0 1 1.75-1.11 1.765l-4 .063c-.858.172-2-.61-2-.61-1.5-1.03-2.905-3.702-4-3.358 0 0-1.124.36-1.093 2.766.016.516-.234.797-.234.797s-.28.297-.828.344h-1.797c-3.953.25-7.438-3.39-7.438-3.39S3.437 9.706.093 1.846c-.22-.515.016-.765.016-.765S.342.785 1 .785l4.28-.03c.407.062.69.28.69.28s.25.172.374.5c.703 1.75 1.61 3.344 1.61 3.344 1.562 3.218 2.624 3.765 3.233 3.437 0 0 .797-.484.625-4.375-.063-1.406-.453-2.047-.453-2.047-.36-.485-1.032-.625-1.33-.672-.233-.03.157-.594.673-.844.766-.376 2.125-.392 3.734-.376 1.266.016 1.625.094 2.11.203 1.483.36.983 1.734.983 5.047 0 1.063-.203 2.547.563 3.03.328.22 1.14.032 3.14-3.374 0 0 .94-1.625 1.673-3.516.125-.344.39-.484.39-.484s.25-.14.595-.094l4.5-.03c1.36-.173 1.58.452 1.58.452.233.64-.502 2.14-2.345 4.594z"/>
</svg>
