<svg xmlns="http://www.w3.org/2000/svg" width="50" height="50" viewBox="0 0 50 50">
  <path fill="#FFF" d="M25 0C11.193 0 0 11.193 0 25s11.193 25 25 25 25-11.193 25-25S38.807 0 25 0zm11.76 28.255c2.406 2.234 2.906 3.313 2.984 3.453 0 0 1 1.75-1.11 1.766l-4 .063c-.858.172-2-.61-2-.61-1.5-1.03-2.905-3.702-4-3.358 0 0-1.124.358-1.093 2.765.017.516-.233.797-.233.797s-.28.297-.828.344H24.68c-3.953.25-7.438-3.39-7.438-3.39s-3.813-3.94-7.156-11.798c-.22-.516.016-.766.016-.766s.234-.297.89-.297l4.282-.03c.406.062.688.28.688.28s.25.172.375.5c.702 1.75 1.608 3.344 1.608 3.344 1.563 3.218 2.625 3.765 3.234 3.437 0 0 .797-.484.625-4.375-.063-1.406-.453-2.047-.453-2.047-.36-.484-1.03-.625-1.328-.672-.234-.03.156-.594.672-.844.766-.376 2.125-.392 3.734-.376 1.266.016 1.625.094 2.11.203 1.483.36.983 1.734.983 5.047 0 1.063-.203 2.547.563 3.03.328.22 1.14.032 3.14-3.374 0 0 .94-1.625 1.673-3.516.126-.344.392-.484.392-.484s.25-.14.594-.094l4.5-.03c1.36-.173 1.578.452 1.578.452.234.64-.5 2.14-2.344 4.594-3.032 4.03-3.36 3.655-.86 5.983z"/>
</svg>
