<svg xmlns="http://www.w3.org/2000/svg" width="505.101" height="165.036" viewBox="0 0 505.101 165.036">
  <g fill="#6E7171">
    <path d="M12.852 32.64c-.137 1.09-1.906 3.742-5.304 7.956-.408.816-1.02 1.157-1.836 1.02-1.09 0-2.11-.408-3.06-1.224-.408-.408-1.224-1.7-2.448-3.876C.067 34.342 0 32.98 0 32.436c.408-3.943 2.244-5.712 5.508-5.304.816.137 1.836 1.294 3.06 3.468.134.137.306.102.51-.102.204-.204.44-.306.714-.306.408 0 1.02.306 1.836.918.816.612 1.224 1.122 1.224 1.53zm137.7-6.528c-1.36.816-2.11 1.77-2.244 2.856 0 .545.134 1.09.408 1.632-.682.274-1.565.886-2.652 1.836 0-.134-.07-.338-.204-.612-2.722 1.632-4.08 3.946-4.08 6.936 1.087-.95 2.652-2.515 4.692-4.692l-.204 1.02 1.224.204c.408-.134.68-.204.816-.204-1.498 0-2.926 1.565-4.284 4.692 0 .274.067.612.204 1.02-2.856 4.896-4.284 7.89-4.284 8.976.408.137.816 0 1.224-.408.408-1.087 2.244-3.535 5.508-7.344-1.498 2.448-3.06 5.17-4.692 8.16-3.13 6.12-4.762 9.93-4.896 11.424 0 .274-.24.85-.714 1.734-.48.886-.784 1.6-.918 2.142 0 .545.134 1.294.408 2.244l-.612-.408c.27.274.408.612.408 1.02 0 .274-.204.612-.612 1.02v.408c-.137.137-.07.274.204.408l.816-1.428c.68 1.09.95 1.836.816 2.244 0 .816-1.36 3.468-4.08 7.956-.137 0-.204.408-.204 1.224l-.816-.612v.204c0 .137.067.274.204.408.134.137.204.408.204.816-.137.408-1.02 2.652-2.652 6.732-.682-.134-1.224-.134-1.632 0-.137.545 0 .816.408.816.27.137.612 0 1.02-.408-.274.545-.816 1.36-1.632 2.448.542.545 1.087 1.294 1.632 2.244l-11.628 26.112c-5.986 13.738-11.832 23.256-17.544 28.56 0 .68-.75 1.97-2.244 3.876-.682.27-1.632.883-2.856 1.836-.274 0-.647-.238-1.122-.714-.478-.478-.85-.714-1.122-.714-.274 0-.545.134-.816.408-.274.27-.545.408-.816.408-.816 0-1.836-1.157-3.06-3.47-.682.272-1.02.747-1.02 1.43.134.68.134 1.224 0 1.632-.137-.408-1.09-.545-2.856-.408.27.816.883 2.107 1.836 3.876-6.936-2.993-10.2-4.488-9.792-4.488-.274 0-.408.135-.408.408 0 .27-.204.408-.612.408.134 0 .067-.204-.204-.612-3.946-1.224-6.802-1.836-8.568-1.836-1.224-.545-2.11-1.766-2.652-3.672-.137-.27-.545-.54-1.224-.816-2.448-4.62-4.217-7.002-5.304-7.14 0-.134.134-.338.408-.612l.408-.612c.27-1.632-.204-2.515-1.428-2.652-.953-.134-2.04 1.09-3.264 3.672.134.274.204.682.204 1.224-.274 0-2.177 2.04-5.712 6.12-3.538 4.08-5.85 6.05-6.936 5.917.408.135-.478-.407-2.652-1.632-.545 0-1.294-.137-2.244-.407-.953-.273-1.702-.407-2.244-.407-.816.815-1.36 1.97-1.632 3.468-.408.68-1.36.884-2.856.613-3.81-.274-6.257-2.38-7.344-6.324l-3.672-4.08c-1.498-2.72-3.06-5.372-4.692-7.957-1.77-3.535-2.926-6.39-3.468-8.568-2.585-10.47-4.42-21.487-5.508-33.048l.204-2.448c0-.95-.48-1.7-1.428-2.245-.408 8.705.338 16.66 2.244 23.868-1.09-.134-1.702-.542-1.836-1.224-.545-1.767-1.02-3.944-1.428-6.53C.95 95.61.746 86.363 1.836 76.297c.27-2.99 1.29-5.642 3.06-7.956-.137.274-.137-.067 0-1.02.27.408.542.612.816.612l.816-.408c-.408-.27-.816-.95-1.224-2.04.542 0 .95-.134 1.224-.408.27.816.68 1.906 1.224 3.264l.816.204c.27.274.475-.27.612-1.632-1.224-1.224-1.77-2.31-1.632-3.264.134 0 .306-.134.51-.408.204-.27.44-.338.714-.204.542 0 1.224.953 2.04 2.856.134-.134.204-.408.204-.816.27-2.04-.274-3.943-1.632-5.712-.137 0-.306.035-.51.102-.204.07-.443.102-.714.102-.408 0-1.02-.848-1.836-2.55-.816-1.7-1.157-2.82-1.02-3.366 0-.27.102-.51.306-.714s.306-.373.306-.51H7.14c.95.545 1.632 1.498 2.04 2.856.134.682 0 1.702-.408 3.06.134.408.475.816 1.02 1.224.27-.68.746-.95 1.428-.816.408.137 1.087.75 2.04 1.836.134-.68.475-1.7 1.02-3.06 1.087 1.09 1.836 1.973 2.244 2.652.68.137 1.154.137 1.428 0-2.722-4.76-4.013-7.82-3.876-9.18.134-.95.883-2.244 2.244-3.876 1.358-1.632 2.515-2.378 3.468-2.244.68 0 1.562.612 2.652 1.836 1.087 1.224 1.562 2.177 1.428 2.856 0 .545-.306 1.428-.918 2.652-.612 1.224-.918 2.11-.918 2.652.134.274.542 1.157 1.224 2.652 3.264-.68 4.896-1.428 4.896-2.244 0 1.09-.274-.067-.816-3.468.134 0 .373-.067.714-.204.338-.134.644-.134.918 0 1.358.137 2.244 2.79 2.652 7.956-.545 13.056.542 27.406 3.264 43.044.27.408.68 1.157 1.224 2.244.27 0 .475-.134.612-.408 0-.134-.137-.338-.408-.612 1.224-1.495 1.7-2.515 1.428-3.06l.816 1.02c.542-.68.883-1.224 1.02-1.632-.137-.27-.274-.408-.408-.408.408-.408.612-.883.612-1.428.542-.816 1.632-2.652 3.264-5.508-.137.274-.545-.067-1.224-1.02.542.137.883.274 1.02.408.27-.27.68-.746 1.224-1.428 0-.134-.07-.338-.204-.612.816-1.087 1.358-2.31 1.632-3.672C46.85 85 47.666 83.71 47.94 82.62c0 .137.134.274.408.408.816-.542 1.358-1.495 1.632-2.856 0-.542.067-1.428.204-2.652.816-.27 1.326-1.052 1.53-2.346.204-1.29.985-2.346 2.346-3.162 1.358-.816 2.244-1.428 2.652-1.836.134-4.35 1.02-8.906 2.652-13.668.408-1.224 1.428-2.582 3.06-4.08 1.632-1.495 2.99-2.174 4.08-2.04 1.224.137 2.378 1.294 3.468 3.468.408-.27 1.087-.338 2.04-.204-.274-.134.067-.408 1.02-.816l2.04-2.856 3.06 1.428c.408 0 1.087-.134 2.04-.408 1.224 2.722 1.766 6.46 1.632 11.22L81.6 73.44c-.137-.408-.274 0-.408 1.224.134.274.27.408.408.408.408-.408.68-.95.816-1.632 0-.408-.137-1.087-.408-2.04.27-.27.68-.338 1.224-.204 0-.68.134-1.632.408-2.856.27-1.224.475-2.174.612-2.856 0 .545.204 1.294.612 2.244.134-.408.612-1.632 1.428-3.672 0 .137.067.204.204.204.27.137.542.137.816 0l-2.856 25.296c0-.816-.137-2.107-.408-3.876-.408.545-.682 1.36-.816 2.448-.137 1.36 0 2.993.408 4.896.68-1.632 1.02-2.652 1.02-3.06l-.612 16.932c-.137 2.177-.274 5.44-.408 9.792 4.896-5.712 9.86-14.347 14.892-25.908 7.07-16.046 11.22-25.226 12.444-27.54.68-1.358 1.02-2.515 1.02-3.468.68-.134 1.087-.408 1.224-.816 0-.134-.07-.408-.204-.816 1.632-2.448 3.672-6.12 6.12-11.016 0 .408.338.953 1.02 1.632h.612c.816-1.224 1.97-2.856 3.468-4.896-.953 3.264-2.652 6.732-5.1 10.404l.408 1.02c-1.09.274-1.973 1.224-2.652 2.856-.274.682-.408 1.294-.408 1.836-.137.545 0 1.02.408 1.428-.137 0-.408-.27-.816-.816-.137.545-.682 1.294-1.632 2.244v1.632c1.632-.68 2.378-1.087 2.244-1.224-.545-.408-.816-.746-.816-1.02l.816.204c-.274 0 .27-.204 1.632-.612-.408-.542-.478-.816-.204-.816l.204-.204.204-.816c.134-.27 1.7-2.856 4.692-7.752.408-.95.338-1.495-.204-1.632.408-.134.883-.612 1.428-1.428.408-1.495 1.29-3.672 2.652-6.528 1.632-1.495 3.194-3.264 4.692-5.304.408-.408 1.766-2.107 4.08-5.1l2.04-2.448c-.137.682-.137 1.09 0 1.224.542-.542 1.428-1.358 2.652-2.448l1.224-2.448c-.137.137-.07.34.204.612.408-.542.816-1.154 1.224-1.836 0 1.632-.545 3.197-1.632 4.692.134.137.338.204.612.204l3.264-3.264c-5.85 7.752-11.086 15.233-15.708 22.44-.408.816-.545 1.632-.408 2.448l13.056-17.544c.542-.816 1.154-1.7 1.836-2.652-.274 0-.204.274.204.816 1.766-2.582 2.582-4.284 2.448-5.1.134 0 .408.274.816.816.408-.27.95-.612 1.632-1.02.134-.542.542-1.154 1.224-1.836v1.224zM29.376 18.768c-.137 1.906-3.197 4.354-9.18 7.344-1.498-1.358-2.856-2.107-4.08-2.244h-.612c0 .137-.137.204-.408.204-3.81-.408-5.374-3.806-4.692-10.2.408-3.535 1.766-5.167 4.08-4.896.816.137 1.428.34 1.836.612 2.99-4.35 5.234-6.458 6.732-6.324 1.903.274 3.33 1.498 4.284 3.672l1.836 5.916-.204 3.264c0 .137.067.545.204 1.224.134.682.204 1.157.204 1.428zM17.544 39.984c-.137 1.224-1.157 1.77-3.06 1.632-1.09-.134-2.04-1.087-2.856-2.856.68-.816 1.495-1.154 2.448-1.02 2.448.137 3.602.886 3.468 2.244zM13.26 67.32h-.612l-.612.816.612.408.612-1.224zm.204 17.952c0-1.766.067-4.147.204-7.14-.274-.408-.682-1.02-1.224-1.836l-.204 1.836c0 .953.27 1.973.816 3.06-.682 1.77-.545 3.13.408 4.08zm.204-22.644h-.612l-.408 1.02.612.204.408-1.224zm-.204 2.448v-.816h-.408l-.204.816h.612zm4.896 15.708l-.408-.204-.408.816.408.408.408-1.02zm6.12 65.28l-1.02-.204v-.61l1.02.202v.612zm3.264-72.012l.204-2.856c-.274-.134-.545-.338-.816-.612 0 .408-.137 1.565-.408 3.468l-.408.204v1.02c.134-.27.612-.68 1.428-1.224zm4.284-34.884c-2.993 1.36-4.217 2.04-3.672 2.04-1.5-.134-2.11-1.428-1.836-3.876.134-1.766.816-2.582 2.04-2.448.95.137 2.174.816 3.672 2.04l-.204 2.244zM28.764 59.16v-.816l-.612-.204v.816l.612.204zm22.644-37.128c-.545.545-.886.816-1.02.816.408 0-.75-.612-3.468-1.836 0-.542.134-1.632.408-3.264 1.087.408 2.515 1.02 4.284 1.836l-.204 2.448zM55.08 72.42l-.408-.204-.408 1.02.408.204.408-1.02zm11.016-15.708c.27-2.174.27-3.398 0-3.672-1.09.953-1.702 1.77-1.836 2.448 0 .408.067.75.204 1.02v.408c.134 0 .408-.032.816-.102.408-.067.678-.102.816-.102zm12.648 64.872l1.632-26.52c0 .408-.102 1.122-.306 2.142s-.376 1.734-.51 2.142l-.816 22.236zm2.244-28.356h-.612l-.408 1.02.612.204.408-1.224zm.204-1.224h-.612l-.408 1.02.408.204.612-1.224zm.408-4.08c-.274-1.358-.34-2.31-.204-2.856-.408 3.13-.545 4.966-.408 5.508 0-.408.204-1.29.612-2.652zm.408-5.712l.408-4.08c-.816 1.36-1.224 2.244-1.224 2.652.134.274.408.75.816 1.428zm.816-5.508l-.612-.204-.408.612.612.408.408-.816zm.204 34.476l.408-3.06h-.612l-.408 3.06h.612zm.204 2.244l.204-1.224h-.612l-.204 1.224h.612zm.204 3.672l-.408 1.428-.408-.204.408-1.224h.408zm0-10.608l.204-2.856h-.612l-.204 2.856h.612zm.204-6.324l.204-1.224h-.612l-.204 1.224h.612zm.612-15.504l.204-2.652h-.612l-.204 2.448.612.204zm19.584 6.528c-.408 0-.682-.204-.816-.612.68-1.632 1.087-3.264 1.224-4.896-.816 1.36-1.836 3.264-3.06 5.712.27.816.338 1.428.204 1.836 0 .545-.34 1.09-1.02 1.632l-.204 2.244c.816-.408 1.597-1.46 2.346-3.162.746-1.7 1.19-2.617 1.326-2.754zm-.816 56.305c-.408.545-1.02.745-1.836.61.134.135.204.41.204.817 1.087-.274 1.632-.75 1.632-1.427zm1.428-1.225l-1.02 1.02-.204-.408.816-1.02.408.408zm6.324-69.156c0-.27-.07-.542-.204-.816-.137-.27-.204-.475-.204-.612-.274 0-.478.137-.612.408.134.816-.274 1.428-1.224 1.836-.408 1.906-1.36 4.15-2.856 6.732 0-1.087-.07-1.903-.204-2.448 0 .408-.172.918-.51 1.53-.34.612-.51 1.122-.51 1.53l1.02-.408c.27.274.408.612.408 1.02 3.127-5.438 4.76-8.364 4.896-8.772zm-4.08 4.08l.204-1.02-.408.204c-.274.137-.408.274-.408.408 0 .274.204.408.612.408zM112.2 69.36l-.408-.204-.612 1.836h.612l.408-1.632zm2.04.816c0-.134-.035-.373-.102-.714-.07-.338-.102-.577-.102-.714-.274.408-.682.953-1.224 1.632.408-.27.883-.338 1.428-.204zm.612-4.284h-.612l-.612 1.632.612.204.612-1.836zm11.832-8.772h-.408l-.408 1.02.204.408.612-1.428zm2.244-14.688l-.204-.612-1.428 1.224.408.204 1.224-.816zm-.612 47.124l-.408-.408-.408.204.408.612.408-.408zm2.244-5.916c-.682.953-1.157 1.632-1.428 2.04h.612c.408-.95.68-1.632.816-2.04zm3.264-14.688l-.612-.204-.612 2.244h.408l.816-2.04zm.204-47.532l-.816.816-.408-.204.612-1.02.612.408zm1.02 46.716v-1.428h-.612v1.428h.612zm2.652 5.508l-1.02 1.428-.408-.204 1.02-1.224h.408zm-.204-7.956l-1.02.204v-.408l.816-.408.204.612zm3.06-47.124c-.682 1.498-1.294 2.652-1.836 3.468-.137-.27-.204-.612-.204-1.02 0-.408.68-1.224 2.04-2.448zm.816 4.692h-.612v-1.02h.612v1.02zm2.04-7.14l-1.836 2.04-.408-.408 1.836-2.04.408.408zm-1.02 8.16l-1.224 1.02c0-.542.338-1.29 1.02-2.244 0 .545.067.953.204 1.224zM233.783 85.884c0 2.448-1.02 6.053-3.06 10.812-.816 2.314-1.973 5.986-3.468 11.016-1.632 1.77-3.946 4.762-6.936 8.976l1.02-2.04c.815-1.495 1.086-2.378.815-2.652-1.09 1.498-2.585 3.946-4.488 7.344-.816.682-2.04 1.973-3.672 3.876-.816 1.5-1.973 3.672-3.468 6.528-3.54 5.033-7.48 9.113-11.832 12.24-7.48 5.578-12.444 8.364-14.892 8.364-.408 0-1.02-.137-1.836-.408-.816-.274-1.36-.408-1.632-.408-1.09 0-2.62.236-4.59.714-1.973.476-3.503.715-4.59.715-4.08 0-8.434-2.177-13.056-6.527l-4.08-.816c-.138.408-.205.953-.205 1.633 0 .682.067 1.498.204 2.447-1.362-1.766-3.198-4.08-5.51-6.936-.136-.678-.477-1.902-1.02-3.67-.407-.272-.815-.543-1.223-.817-.274-1.766-.682-4.488-1.224-8.16.68-.816 1.02-1.428 1.02-1.836-1.36-3.127-2.244-5.78-2.652-7.956.41-.407.41-4.08 0-11.015 1.225-9.926 3.74-19.718 7.55-29.376 1.494-4.215 4.417-8.636 8.77-13.26 4.623-5.44 8.773-8.57 12.445-9.385.542 0 3.127-1.087 7.752-3.264-9.384 3.81-16.865 9.726-22.44 17.75-.137.136 0 .407.408.815l1.02-.816c-1.77 1.905-3.197 4.216-4.284 6.935l.817.408c4.214-5.846 11.083-12.036 20.604-18.564-.407 0-1.564.34-3.467 1.02 8.702-5.168 15.434-7.683 20.196-7.55-.138 0-.41.205-.817.613.408.274.883.408 1.428.408.68 0 1.7-.133 3.06-.407 1.36-.27 2.38-.408 3.06-.408.41 0 1.327.478 2.755 1.428 1.428.953 2.276 1.428 2.55 1.428.542 0 .78-.1.714-.305-.07-.204.03-.306.305-.306.408.136.985.58 1.734 1.325.745.75 2.753 2.958 6.017 6.63.542 1.224 1.903 2.856 4.08 4.896l.816-.815c-.953-.408-1.326-.95-1.122-1.632.205-.68.033-1.224-.51-1.632 2.175 0 3.807.48 4.897 1.43.816-.95 1.224-1.563 1.224-1.837.543 1.498 1.633 3.06 3.265 4.692.95 1.09 2.378 4.558 4.284 10.404 0 .544.066 1.427.203 2.65.27.546.883 1.09 1.836 1.633.815 1.223 1.223 2.447 1.223 3.67zm-69.36-21.624l-2.652 2.856-.203-.612 2.448-2.448.408.204zm3.264-2.04l-2.652 2.04-.204-.816 2.45-1.836.407.612zm32.436 19.584c-1.36-2.04-2.177-3.602-2.448-4.692-1.77 1.224-4.625 3.538-8.568 6.936.134-.816.68-1.836 1.632-3.06-6.258 7.752-10.813 16.39-13.67 25.908-.544-.816-.885-1.224-1.02-1.224-.952 0-1.87 1.632-2.753 4.896-.886 3.264-1.326 5.578-1.326 6.936 0 2.722.613 6.257 1.837 10.608 5.438-1.495 10.675-5.508 15.708-12.036 5.03-6.528 7.478-12.444 7.344-17.748.54.274.95-.134 1.223-1.224l.612-1.428c-1.09-.408-2.244-.883-3.468-1.428.134-.68.204-1.224.204-1.632 0-1.358-2.176-2.582-6.527-3.672l5.1-.204c.68.274 1.632.886 2.856 1.836.133-.408.337-.883.61-1.428-.815 0-1.293-.067-1.427-.204.68-.68.95-1.224.816-1.632-.546-.408-1.295-.95-2.245-1.632 2.04-.68 3.398-1.562 4.08-2.652-.408-.542-.953-1.154-1.632-1.836.408 0 .95.102 1.632.306.68.204 1.154.306 1.428.306zM181.967 52.02h-1.224v-.816h1.224v.816zm8.772.204c-1.5.408-4.56 1.428-9.18 3.06h1.835c.816.137 3.264-.883 7.344-3.06zM184.62 51h-1.225v-.816h1.224V51zm8.975 43.86h-1.02v-.816h1.02v.816zm36.312-33.456h-.816v-1.836h.817v1.836zM230.11 38.76c1.902-.816 3.397-1.428 4.487-1.836.134 1.632.204 2.722.204 3.264-2.72 1.09-3.875 1.632-3.467 1.632-.137 0-.478-.204-1.02-.612l-.204-2.448zm5.303 49.776l.204-.816-.204-2.04c1.495-3.535 2.856-5.37 4.08-5.508.95 0 1.836.612 2.652 1.836.27.816.678 1.565 1.223 2.244.27-.134.68-.204 1.225-.204 1.357 0 2.107 1.02 2.244 3.06.135 3.946-.953 5.916-3.264 5.916-.137 0-.205-.067-.205-.204l-.406.204c-.683 0-1.566.408-2.653 1.224-3.54-2.582-5.305-4.147-5.305-4.692 0-.27.135-.612.408-1.02zm4.284 43.86l-2.244 7.548.408.204 2.45-7.752h-.613zm77.928-65.892c-.406-1.632-.406-2.582 0-2.856-1.09-3.943-1.904-6.936-2.447-8.976-1.906-1.495-3.13-2.31-3.672-2.448-.408.953-.61 1.702-.61 2.244h-.41c-1.09-1.766-1.972-2.582-2.65-2.448l-2.448 1.428c-.275-.408-.48-.68-.613-.816-2.72-1.632-4.488-2.378-5.303-2.244-.816 0-3.266 1.973-7.346 5.916-.682 0-1.223-.27-1.63-.816 0 .682-.138 1.157-.41 1.428l-1.224.204c-.273 0-.375-.102-.305-.306.066-.204-.035-.306-.307-.306-.682 0-1.36.75-2.04 2.244v1.836c0 .682-.138 1.224-.407 1.632 1.223-1.766 2.105-3.06 2.65-3.876l.205.408c-5.033 8.842-9.113 15.574-12.24 20.196-.137-1.766-.137-4.214 0-7.344-.137-.134-.203-.27-.203-.408.406-3.672.406-6.732 0-9.18-.14 0-.24.07-.307.204-.07.137-.24.204-.51.204-.545 0-.75-.816-.613-2.448l.408-2.448c-2.992-3.264-5.236-4.488-6.73-3.672 2.72 1.36 4.01 2.448 3.875 3.264 1.088.274 1.7 1.157 1.836 2.652 0 .545-.07.953-.203 1.224-1.36-2.72-2.788-4.284-4.284-4.692 0 .137.066.34.205.612.134.274.204.478.204.612l.61-.204c.68 0 1.43.682 2.245 2.04l-1.632.816c-2.855-3.127-4.56-4.76-5.1-4.896.27-.408.406-.883.406-1.428-2.313 1.498-4.486 2.448-6.527 2.856-1.498.682-2.584 1.157-3.264 1.428-.137.545-.203 1.02-.203 1.428-.547 1.09-1.295 1.906-2.244 2.448-1.225-.408-2.178-.68-2.857-.816 0-.134-.204-.067-.612.204.27 0 .408.137.408.408-.682 1.906-1.09 2.993-1.225 3.264.136-.134.44-.27.92-.408.474-.134.78-.27.917-.408.135.137.135.274 0 .408-1.498 1.906-2.244 3.06-2.244 3.468-1.09.545-1.906 1.09-2.447 1.632l.816-.612c.408.408.678.75.816 1.02-.14.274-.14.612 0 1.02.54-1.495.95-2.377 1.223-2.652.272.545.206 1.02-.202 1.428.678-.134.95.478.816 1.836.95 4.217 1.494 6.598 1.63 7.14.136.816-.136 2.722-.815 5.712.134-.134.407.137.815.816-1.09 5.986-1.836 9.996-2.244 12.036-1.77 9.52-3.06 15.504-3.874 17.952-1.498 4.217-2.244 7.548-2.244 9.996 0 .137-.102.478-.307 1.02-.203.545-.307.953-.307 1.224 0 .545.135.816.408.816l5.713-17.748-5.51 21.216c.95-3.264 1.7-5.575 2.245-6.936 0 .274-.75 3.197-2.244 8.772 0-.27.27-.475.817-.612l-2.45 6.12c-.136-.816.033-1.903.51-3.264.475-1.358.645-2.174.51-2.448-.953 3.4-1.498 5.374-1.63 5.916 0-.134.066-.27.203-.408.134.816-.682 4.15-2.448 9.996l-.407-.61c.134 2.173-.07 3.6-.612 4.283.68-1.09 1.224-1.906 1.632-2.448.134.407.204.678.204.814-.138-1.09.27-2.518 1.223-4.284l.408.613c0-.135.068-.338.205-.613.134.816.032 1.767-.306 2.856-.343 1.087-.512 1.836-.512 2.244.542-1.498.95-2.52 1.225-3.06.408.407.61.68.61.815-.68 1.766-1.02 3.06-1.02 3.876 1.632-3.263 2.515-5.032 2.654-5.303 8.293-21.895 12.443-32.91 12.443-33.048 2.582-8.294 4.758-16.046 6.527-23.257.95.953 1.428 1.294 1.428 1.02-4.762 17.952-7.21 27.132-7.344 27.54-3.263 12.24-6.8 22.032-10.606 29.376.408-.275.61-.205.61.203v1.224c.544-1.77 1.292-3.264 2.245-4.488.27.137.337.274.204.407-.953 2.856-1.77 4.622-2.45 5.305-1.905 3.806-3.128 6.8-3.67 8.976.815-1.632 1.427-2.79 1.835-3.468.134 0 .134.134 0 .408 0 .134.134.204.407.204.27-.138 1.496-2.586 3.672-7.345 3.397-7.344 5.167-11.15 5.304-11.424.133.137.203.408.203.816.135.953-1.428 4.965-4.69 12.036.815-1.09 1.562-2.04 2.243-2.856.133-.408.27-.545.408-.408.408-.273.746-.273 1.02 0-1.225 3.127-2.04 5.575-2.447 7.345 1.495-2.586 3.128-6.054 4.896-10.404l-.61.612c0-.408.407-1.496 1.224-3.265.27.274.408.48.408.612.27-2.174.61-3.74 1.02-4.692.408.408.475.75.203 1.02 3.128-5.983 4.694-10.47 4.694-13.464 1.357-2.174 2.04-3.806 2.04-4.896 0-.408-.204-.746-.612-1.02.54-.408.883-.68 1.02-.816.135-1.224.408-1.97.816-2.244l-.205-1.428c-.273-.542-.203-1.154.205-1.836l.61.408c.544-1.495.952-2.582 1.226-3.264-.545.682-1.02 1.09-1.428 1.224 0-1.632.408-2.652 1.223-3.06.27.408.407.816.407 1.224 2.582-9.384 4.555-14.55 5.916-15.504l.613.612c.27-.27.746-.408 1.428-.408.133-1.087.475-2.174 1.02-3.264.27.137.338.274.203.408-.273 1.632-.682 3.06-1.223 4.284-.275-.27-.342-.408-.205-.408.407.408.612.816.612 1.224 0 .408-.24 1.192-.715 2.346-.48 1.157-.58 2.008-.307 2.55 1.36-2.72 2.174-4.214 2.45-4.488l.407.408c-.137 1.632-.205 2.856-.205 3.672 1.225-2.582 2.174-4.214 2.857-4.896l.405.408c-.273.816-.34 1.77-.203 2.856.95-1.224 1.633-2.244 2.04-3.06.68.953 1.358 1.428 2.04 1.428.54-.95.883-1.7 1.02-2.244.27.274.338 1.157.205 2.652 2.04-3.943 3.264-6.254 3.672-6.936.132.137.27.478.407 1.02 1.766-3.127 2.785-4.963 3.06-5.508.134.274.204 1.02.204 2.244l.612-.612c.27.274.543.408.816.408.27 0 1.563-1.903 3.875-5.712 2.313-3.806 3.604-5.712 3.877-5.712h1.224l.408-1.632c0-1.087.338-1.632 1.02-1.632.408 0 1.223.24 2.447.714 1.224.478 2.04.714 2.448.714.27 0 .61-.27 1.02-.816-.137-.816-.07-1.29.203-1.428.817 1.09 1.226 1.973 1.226 2.652.133-1.632.338-2.856.61-3.672.41.953.68 1.702.817 2.244l-.61.816h1.63c-.137-2.856-.07-4.622.205-5.304.814-1.495 1.29-2.378 1.428-2.652-.406-1.632-.61-2.582-.61-2.856zm-78.54 88.944l-.407 1.225.408.204.407-1.43h-.407zm2.04-3.264l-.407 1.02h.407l.408-.815-.408-.206zm2.244-3.672l-.407-.204 2.242-7.548h.408l-2.244 7.752zm.815 14.688l-.816 1.632.612.204.61-1.632-.407-.204zm.408-106.08c1.496-1.224 2.72-1.836 3.672-1.836 1.225-.134 1.902.682 2.04 2.448.134 2.448-.544 3.742-2.04 3.876.543 0-.682-.746-3.672-2.244V57.12zm1.428 104.652l-1.427 3.264h.816l1.224-3.264h-.613zm-.202-21.828v-.816h.61v.816h-.61zm1.02-14.892h-.612l.408-2.04h.61l-.407 2.04zm.61-2.04h-.407l.817-5.1h.613l-1.02 5.1zm.817 34.272l-.816.816.407.408.816-.816-.408-.408zm.205-91.188h-.613v1.02h.613v-1.02zm1.223-4.896c-.545.545-1.02 1.36-1.428 2.448.27-.95.746-1.562 1.428-1.836l.816.408c-.41-.542-.682-.883-.817-1.02zm.816 12.444l-.817 1.224.613.408.61-1.428-.407-.204zm.204 16.116h-.613v1.02h.614v-1.02zm-.205-20.808v-1.02h.61v1.02h-.61zm1.02 16.932h-.612l.203 1.02h.614l-.205-1.02zm.815-19.584l-.408-.204.408-.816.408.204-.408.816zm-.203-2.04c.408-1.224.95-1.97 1.63-2.244l.206 1.836c-.408-.27-1.02-.134-1.836.408zm.408 4.08l-.408-.204.408-.816h.203l-.203 1.02zm.407 49.368l-.406-.204.407-1.02.613.204-.613 1.02zm3.673 9.996l-.408-.204.408-2.04h.61l-.61 2.244zm2.448-66.708c-.137-1.358 1.02-2.107 3.47-2.244.948 0 1.765.478 2.446 1.428l-5.916.816zm.61 77.316v-.816l.614-.204v.816l-.613.204zm1.022-1.428l-.408-.204 1.02-3.06h.408l-1.02 3.264zm1.63-6.12v-.816h.612v.816h-.61zm.41-1.02l-.203-.816h.61l.204.816h-.61zm.408-1.632v-1.224l.61-.204v1.224l-.61.204zm.61-1.836l-.202-1.224h.61l.206 1.224h-.613zm.41-72.42c0-.408.438-.883 1.325-1.428.883-.542 1.53-.816 1.938-.816.272 0 .51.102.716.306.203.204.373.306.51.306.54-.95 1.563-1.428 3.06-1.428 3.265-.134 4.964 1.09 5.1 3.672.134.545 0 1.906-.407 4.08l-12.243-4.692zm.61 36.108h-.61l.205-2.652h.61l-.204 2.652zm-.406 34.068v-1.02h.406v1.02h-.406zm1.02-33.864h-.613l.407-2.856h.613l-.408 2.856zm3.672 19.992l-.408-.204.203-.816.612.204-.408.816zm.408-1.428h-.408l.408-1.836h.61l-.61 1.836zm.61-3.672l-.407-.204.613-1.428h.61l-.815 1.632zm1.02-1.836l-.407.204v-1.836l.613-.204-.205 1.836zm.41-28.968l-.612-.204.408-1.02h.61l-.407 1.224zm0 3.264v-1.224h.612v1.224h-.613zm.815-2.04h-.408v-2.244h.61l-.203 2.244zm2.245 21.828l-.408 1.836.408.204.61-1.836-.61-.204zm3.06-27.132h-.613l.204.816h.61l-.202-.816zm7.344-7.14l-.408 1.02.408.204.408-1.224h-.408zm10.607 27.948l-1.225 1.02.408.408L296 91.188l-.407-.204zm3.06-4.08l-.407-.204.408-.816h.408l-.408 1.02zm1.632-39.168c-.406.545-.885.816-1.428.816 1.766-.134 2.652.34 2.652 1.428 0-1.224-.41-1.97-1.225-2.244zm11.017 32.232c0-.408-.14-.68-.408-.816 0 1.09-.137 1.702-.408 1.836h.61c.136-.408.206-.746.206-1.02zm1.223-10.404l-.408-2.04h.613l.408 1.836-.613.204zm2.04 1.02c.542 2.04.884 3.197 1.02 3.468-1.224-2.04-1.905-3.194-2.038-3.468 0-.27.066-.612.203-1.02.135-.408.203-.68.203-.816.543.408.95.612 1.225.612 0 .137-.204.545-.612 1.224zm3.468 4.692h-.408V76.5h.408v-1.224zM455.324 100.368c-2.04-.27-3.81.204-5.305 1.428-.274.545-.75 1.157-1.43 1.836-1.224 1.09-2.517 2.11-3.876 3.06-1.63 1.498-2.38 2.856-2.242 4.08-1.77 1.77-5.713 5.17-11.832 10.2-.14.137-.07.34.203.612 1.902-.816 3.33-1.7 4.283-2.652l1.43 1.428c0 .545-.07.75-.205.612l.817.204c1.494 0 3.602-1.224 6.324-3.672l-3.67 3.06c.132.137.61.274 1.427.408 1.225 0 3.467-.883 6.732-2.652l-.206 1.428c-.682.953-1.7 2.11-3.06 3.468-1.5.408-3.265 1.632-5.304 3.672.54.274 1.428.137 2.652-.408-.408.408-1.057.918-1.94 1.53-.884.612-1.528 1.122-1.937 1.53l1.02 1.224c-1.906-.27-2.855.204-2.855 1.428v1.428c-.273 0-1.225.408-2.855 1.224 0 .408.475.612 1.428.612-2.992 1.906-6.19 3.876-9.588 5.916l-1.225 1.225c0 .273.135.816.408 1.632.135.544.066 1.09-.203 1.63l-5.713 4.08c-2.447 1.904-4.42 2.857-5.916 2.857-3.4-.138-5.1.54-5.1 2.04l-5.508-.204c-.408.134-.682.03-.816-.307-.137-.34-.342-.58-.61-.714-.546 0-3.132.68-7.753 2.04-2.858.816-5.917 1.154-9.18 1.02-7.892-.407-15.372-2.855-22.442-7.344-.137-.273-.408-.682-.816-1.224-2.584-1.357-3.672-2.04-3.264-2.04-.545 0-.885.07-1.02.204l.408-.408v-.204h-.61l-1.022-1.02c-.682-.816-1.36-1.154-2.04-1.02.272.544.817 1.427 1.632 2.65-1.09-1.086-2.518-2.785-4.283-5.1 0-.678-.137-1.63-.408-2.855-1.09-2.31-2.518-5.982-4.283-11.015-.684.137-1.02.478-1.02 1.02 0 .816.067 1.157.204 1.02 0-.542-.273-1.087-.816-1.632l-.61.612c-.817 4.762-2.856 12.24-6.122 22.44.27.407-.34.61-1.836.61-.273 0-.748-.272-1.428-.814-.682-.544-1.293-.815-1.836-.815 0-.408.27-.886.816-1.428-.137-.27-.887-.746-2.244-1.43-1.36 1.768-3.605 4.693-6.732 8.773l-1.428-1.632c.95-1.224 1.428-1.973 1.428-2.244 0-.545-.48-1.428-1.428-2.652-.545.27-1.7 1.7-3.47 4.284-.813-1.224-1.767-2.722-2.854-4.487-.137.133-1.63 1.223-4.488 3.263-1.223-2.448-1.836-4.146-1.836-5.1.135-.95.613-1.766 1.428-2.448-.137-.27-.406-.612-.814-1.02h-1.02c-.407 0-.612.203-.612.61v-1.428c.816-.54 1.633-1.494 2.447-2.855 1.226-3.535 2.245-9.247 3.062-17.136.27-.408.543-1.224.816-2.448.135-.27.203-1.562.203-3.876 0-2.174-.136-3.74-.405-4.692l1.836-1.428 5.304-46.716c2.31-20.263 4.623-35.7 6.936-46.308.543-2.174 2.174-7.07 4.896-14.688.27-3.127.338-.883.205 6.732l-.612 12.648c.543 0 1.02-.338 1.428-1.02.816-5.03 2.652-12.036 5.51-21.012.95.408 2.105 1.36 3.467 2.856.543-.408 1.633-.542 3.264-.408.135 0 .408.07.816.204.408.137.746.204 1.02.204.408 0 .613-.134.613-.408 0-.27.203-.338.61-.204.272 0 .542.137.817.408.27.274.61.408 1.02.408 1.357.137 2.174-.612 2.447-2.244l2.244 4.896c-.137 3.4-.07 5.304.205 5.712.132 1.36 0 3.672-.41 6.936.272.953.542 2.11.817 3.468l-8.16 64.668c-.275 2.585.816 5.17 3.264 7.752.272.682 1.292 2.314 3.062 4.896 9.518-7.615 19.176-20.06 28.967-37.332.542.545 1.495 1.294 2.856 2.244-.545 2.04-1.158 3.672-1.836 4.896l-.205 1.428c.816.137 1.633-.338 2.447-1.428l1.633-2.652c.27.274.54.408.816.408-.136 2.177-.274 3.468-.407 3.876 1.086-.816 1.902-1.766 2.447-2.856l-7.547 15.096c-2.586 5.304-5.646 9.93-9.18 13.872-.408.408-1.734 1.804-3.98 4.182-2.243 2.38-3.366 3.707-3.366 3.978 0-.408.613.682 1.836 3.264-.545-.542-1.293-1.358-2.242-2.448-.683.274-1.43 1.224-2.243 2.856l.814.408c.41.137-.272.204-2.038.204-.682.274-.887.545-.61.816-.817.274-1.907 1.294-3.267 3.06 1.768 1.906 4.488 3.334 8.16 4.284 8.16 2.177 11.967 3.264 11.424 3.264h6.12l5.916-.204.61.816c4.49.274 14.894-4.76 31.214-15.096-2.178 1.632-6.46 4.488-12.852 8.568 0 .953.475 1.428 1.428 1.428l14.482-7.956c9.385-5.304 15.027-7.886 16.934-7.752.27 0 .408.07.408.204 0 .137.203.204.61.204.542.137 1.665-.102 3.366-.714 1.7-.612 2.89-.918 3.57-.918.27.14 1.427.547 3.468 1.226zm-121.38-89.76h-.817l-1.02 5.712h.613l1.223-5.712zm11.628 120.36h-.816v-1.02h.816v1.02zm2.04.204l-.41-2.04-.813-.204.405 2.04.816.204zm5.098-43.248l-2.04 1.632-.407-.408 2.04-1.632.407.408zm8.57 20.604l-.41-.408-2.854 2.448.408.612 2.855-2.652zm-2.245-97.512h-.814v-1.02h.815v1.02zm.613 80.784l-.613-.204-.408-1.428.613-.204.408 1.836zm6.527 11.424l-.408-.204-4.08 4.08.408.408 4.08-4.284zm-2.244 42.636l-2.038-1.02-.205.61 2.04 1.022.204-.612zm4.284-36.108h-1.223v-.816h1.224v.816zm3.877-46.512l-3.263 4.692-.613-.408 3.266-4.896.61.612zm-1.632 46.716l-.203.612-1.428-.612v-.612l1.63.612zm16.934 43.452c-4.896-.682-8.027-1.157-9.385-1.428-3.54-.816-6.324-1.973-8.363-3.468h1.428c1.766.134 4.283.815 7.547 2.04 3.263 1.224 5.778 1.902 7.548 2.04.816 0 1.224.27 1.224.816zM372.5 110.976l-.205.612-1.428-.612v-.612l1.633.612zm4.69-46.308l-1.224 1.632-.406-.612 1.02-1.428.61.408zm1.02-3.468l-.814 1.632-.613-.204.816-1.428h.61zm0 28.356l-.406-.408-1.02 1.428.407.408 1.02-1.428zm17.545-20.808c-1.633 3.13-4.217 7.752-7.752 13.872-2.314 2.856-5.645 7.14-9.996 12.852l17.748-26.724zm-9.588 9.18h-.61l-1.837 3.876.406.408 2.04-4.284zm53.04 31.008l-.203-.612-2.652 1.224v.612l2.855-1.224zm17.748-8.568l-1.223-.204v-.612l1.223.204v.612z"/>
    <path d="M472.666 48.96c-1.498.682-3.06 1.77-4.693 3.264-.137-.27-.408-.408-.814-.408-1.634 0-2.79 1.565-3.47 4.692 2.855-1.495 4.826-2.856 5.916-4.08-.682.545-1.02 1.09-1.02 1.632 0 .408.27.816.814 1.224-.406.137-2.79 1.294-7.14 3.468l.204.408-1.02-.204-.61.612c1.493.408 2.718.612 3.67.612-.274.137-.886.612-1.835 1.428-.685-.27-1.704.035-3.062.918-1.36.886-1.973 1.667-1.836 2.346-.137.137-1.156.953-3.06 2.448-.138.274-.07.408.204.408-.137 0-.408.07-.816.204-.408.137-.682.204-.816.204.135 0 .408-.134.816-.408-1.36-.27-2.652 0-3.877.816l-1.836 1.224h-1.223c-.14.137-.205.274-.205.408 0 .274.134.545.407.816-.137-.134-.342-.067-.61.204-.276.274-.546.408-.817.408-.273 0-.273-.134 0-.408.135-.27 0-.408-.408-.408-.816 0-2.855.816-6.12 2.448l-4.895 2.448-3.264 1.02c-1.36.682-2.178 1.02-2.45 1.02l-.813.612c-2.314.545-3.47 1.36-3.47 2.448 0 1.09.817 2.448 2.448 4.08.135.953.543 2.38 1.225 4.284 2.174.274 3.398.408 3.672.408.27 0 .408-.067.408-.204 0-.134.133-.204.408-.204.272 0 .577.172.92.51.337.34.644.51.917.51 1.086 0 2.617.204 4.59.612 1.97.408 3.434.612 4.387.612 1.902.137 3.533.478 4.895 1.02l.815-.816c2.174.545 5.576 2.244 10.2 5.1L459 96.9c.27.816 1.02 1.906 2.244 3.264h1.02c.408 0 .54-.067.408-.204l2.447 2.652c-.137.137-.238.376-.307.714-.068.34-.172.58-.305.714 4.488 2.993 6.732 4.83 6.732 5.508 0 .545-.104 1.396-.307 2.55-.205 1.157-.307 2.008-.307 2.55 0 .816.066 1.77.205 2.856-.408-.27-.75-.408-1.02-.408.27-.68.407-1.428.407-2.244s-.137-1.766-.408-2.856c-.953 5.578-1.768 9.658-2.447 12.24-1.36 4.896-3.334 8.976-5.916 12.24-.137.274-.48.816-1.02 1.632l.408-.612-.613-.612c-.41.545-1.02 1.224-1.837 2.04.135.137.338.274.613.408l1.02-.612c-.137.682-.545 1.498-1.225 2.448-1.09.545-2.65 1.5-4.69 2.856-.545-1.225-1.158-1.836-1.836-1.836-.137.137-1.158.48-3.06 1.02-.274.408-.138.612.407.612-.68 1.36-1.563 2.04-2.65 2.04-.274 0-.41-.066-.41-.204 0-.134-.136-.204-.407-.204-.273 0-.646.172-1.12.51-.48.342-.853.51-1.124.51-.138-.27-.407-.61-.815-1.02-.137.137-.342.307-.613.51-.273.205-.477.377-.61.51.68 0 1.153.138 1.427.408-.41 0-1.056-.066-1.94-.203-.886-.135-1.528-.204-1.937-.204.408 0 .746-.134 1.02-.408-.408-.408-.682-.612-.816-.612-.545 0-1.02.204-1.428.612l1.02 1.224c-.274-.272-.546-.41-.817-.41l-.408.614c.408.407.746.61 1.02.61-4.08 1.358-5.645 2.04-4.692 2.04l-1.223-.407c-.275 0-.918.373-1.94 1.122-1.02.745-1.665 1.12-1.937 1.12-.682 0-1.7.068-3.06.205-1.36.134-2.382.204-3.06.204-.275 0-.816-.41-1.633-1.226-.137.27-.07.612.205 1.02-1.225.41-2.928.884-5.102 1.43-9.79 1.224-16.727 1.835-20.807 1.835h-2.04c-.817 0-2.448-.48-4.896-1.43-.14 0-.342-.07-.613-.203h-1.02c-.408 0-.545.103-.408.306.134.204.065.307-.204.307-.275 0-.613-.138-1.02-.408-.41-.137-.886-.137-1.43 0 .68.68 1.292 1.02 1.837 1.02h-.816c-.682.135-1.156.204-1.428.204-.274 0-.647-.238-1.122-.714-.48-.478-.918-.714-1.326-.714-.682 0-1.02.338-1.02 1.02l-1.428-.61c-.953-.41-1.43-.75-1.43-1.022 0-.137.068-.273.205-.407-.138-.275-.546-.41-1.226-.41h-.816c-.133.135-.338.205-.61.205.407 0-2.04-.75-7.345-2.244-1.633-.544-8.568-1.77-20.81-3.67.41 0 .614-.272.614-.817 3.81 1.36 6.664 2.04 8.566 2.04.684 0 1.158-.134 1.43-.407-2.582-1.088-4.352-1.633-5.305-1.633-.27 0-.44.07-.51.204-.068.138-.236.204-.51.204-.135-.27-.613-.61-1.428-1.02-2.04-1.087-3.943-1.632-5.713-1.632 0-.27.07-.54.203-.816-1.357-1.086-3.193-2.718-5.508-4.896-.133-.408 0-1.428.408-3.06-.27-.134-.61-.612-1.02-1.428h1.225c-.135 0 0 .204.408.612l.61-.612c-.407-.134-1.562-.816-3.468-2.04-.133-.408-.54-1.02-1.223-1.836.406-.95 1.156-1.7 2.244-2.244 0-.408-.477-.612-1.43-.612.408-.816 1.36-1.358 2.857-1.632-.135-1.358 0-2.174.408-2.448 1.632.408 4.218.886 7.753 1.428l.61.612c.41 0 1.09.274 2.04.816.275-.27.408-.68.408-1.224 2.315 1.224 4.015 1.836 5.103 1.836.682 0 1.02-.475 1.02-1.428.137.274.408.408.816.408.544 0 .813-.27.813-.816.684.408 1.566.886 2.652 1.428 4.08.816 7.006 1.224 8.77 1.224.276 0 .48-.134.614-.408.136-.27.34-.408.61-.408.273 0 .51.24.715.714.203.478.443.714.713.714.816 0 2.008.172 3.57.51 1.563.34 2.754.51 3.57.51 5.438 0 11.15-.204 17.137-.612-.14-.134-.48-.204-1.02-.204 2.58-.27 6.05-.746 10.403-1.428 8.977-.27 18.902-1.766 29.785-4.488.54-.408.814-.68.814-.816 1.36-.134 2.787-.746 4.285-1.836 0-.816-.275-1.224-.816-1.224h-.816l1.225-.612c-.273-.27-.75-.408-1.428-.408.816-.134 2.855-1.154 6.12-3.06l-7.956-1.836c1.632.545 2.923.816 3.876.816h5.1v-1.428c-4.486-.542-9.588-1.495-15.3-2.856l-1.224.204c.68.682 1.02 1.09 1.02 1.224-1.36-.542-2.518-.816-3.467-.816.133 0 .338-.134.61-.408-.272-.408-.815-.612-1.63-.612-.684 0-1.225.137-1.633.408-.273.137-.137.682.408 1.632-.682-.134-2.79-1.428-6.324-3.876-.408.408-.48.75-.205 1.02-.68-.408-1.358-.612-2.038-.612-1.36 0-2.244 1.294-2.652 3.876-.816-.408-1.63-.612-2.447-.612-.275 0-.715.07-1.326.204-.61.137-1.055.204-1.326.204-.272.274-.202.816.204 1.632-1.63-.134-2.926.137-3.875.816.27-.816.065-1.766-.612-2.856-.816.137-1.703 1.428-2.652 3.876.133-.95.066-1.632-.205-2.04h-1.02c-.136.408-.202.816-.202 1.224 0 .408.066.816.203 1.224-.544-.134-1.155 0-1.835.408-.137-.68-.408-1.562-.816-2.652-.546.682-1.43 1.294-2.653 1.836.27-.542.816-1.087 1.633-1.632.135-1.087.408-2.244.816-3.468l-.205-1.632c-.272.274-.407.545-.407.816 0 .137.068.274.205.408-.273.137-.61.408-1.02.816-.684-.542-.953-1.224-.816-2.04.133-1.087.133-1.97 0-2.652-1.906.816-2.723 2.652-2.45 5.508 0-.134-.1-.27-.304-.408-.205-.134-.307-.338-.307-.612 0-.816.95-2.856 2.856-6.12l-.203-1.632c-.408 0-.816.545-1.225 1.632-.137-.27-.545-.746-1.223-1.428-.953.408-1.43 1.09-1.43 2.04-.406-.408-.748-.612-1.02-.612h-.61c-.138.137-.274.204-.41.204 1.767-2.174 2.653-3.672 2.653-4.488 0-.408-.102-.68-.307-.816-.202-.134-.306-.338-.306-.612h-.814c-1.09 0-1.975.682-2.652 2.04-.137 0-.443-.134-.918-.408-.48-.27-.852-.408-1.123-.408.408-3.806 4.215-12.444 11.424-25.908 2.722-2.856 5.917-7.003 9.59-12.444v1.428c1.495-1.495 3.673-3.468 6.528-5.916 2.174-1.357 3.602-2.31 4.283-2.856 1.905-1.495 2.925-2.72 3.062-3.672 2.04 0 5.846-1.562 11.424-4.692l7.957-4.488c3.94-1.357 6.186-2.72 6.73-4.08.135.137.408.204.816.204.68 0 2.173-.746 4.487-2.244-.408-.408-.75-.612-1.02-.612l.816-1.02c.133 0 .234.24.305.714.066.478.307.714.715.714s.816-.204 1.223-.612c-.273 0 .068.478 1.02 1.428.68-.27 1.7-.746 3.06-1.428v2.448c-.545-.134-.953-.134-1.223 0v.612l-.603-.206c-.408-.134-.682-.204-.814-.204l-.205 2.04c2.042 0 3.265-.816 3.673-2.448 3.398-1.632 5.508-2.244 6.324-1.836 0 .274-.203.682-.61 1.224.132.137.407.204.815.204.27-.68.406-1.562.406-2.652l1.836 1.224c.27 1.36.408 2.244.408 2.652 0 .137-.238.51-.713 1.122-.48.612-.716 1.122-.716 1.53 0 .274.205.886.613 1.836.133-.27.203-.746.203-1.428.135 0 .338-.134.61-.408.272-.27.614-.408 1.022-.408.27 0 .338.137.203.408-.137.274-.07.408.203.408.408 0 .78-.134 1.123-.408.34-.27.577-.408.716-.408 0 .274-.07.75-.205 1.428V40.8c.817.953 1.226 1.77 1.226 2.448-.137.408-.682 2.448-1.633 6.12 0-.816.135-1.29.408-1.428v-1.224c-.136-.27-.34-.408-.61-.408l-1.02 3.06c.134.137.476.204 1.02.204.54 0 1.02-.338 1.428-1.02.41.274.68.408.818.408zm-134.64 85.884h-1.02v-.612h1.02v.612zm6.526 10.812l-1.836-.407v-.613l1.836.407v.612zm13.873 1.02v-.612H357.2v.612h1.225zm.408-3.263v-.613h-1.02v.613h1.02zm1.02 1.427v-.612h-.816v.612h.816zm1.428.41v-.613h-1.224v.612h1.225zm-.202 2.243v-.613h-1.02v.613h1.02zm.203-3.265v-.612h-.815v.612h.816zm1.837.408v-.612h-1.225v.612h1.225zm1.836 1.428v-.612l-2.447-.408v.612l2.447.408zm-.41-7.344v-.612h-.815v.612h.816zm.818 6.12v-.612h-1.632v.612h1.633zm.204 3.672v-.612l-1.836-.407v.61l1.836.41zm1.836-1.836v-.612l-2.242-.408v.612l2.242.408zm1.225-7.14v-.612h-1.02v.612h1.02zm1.02 7.14v-.612h-1.43v.612h1.43zm1.43-6.732v-.612h-2.042v.612h2.04zm.405 7.14v-.612h-1.02v.612h1.02zm0 2.04v-.61h-1.02v.61h1.02zm1.43 0v-.61h-1.02v.61h1.02zm5.71-2.448v-.612l-5.915-.408v.612l5.916.408zm-.408 1.02v-.61l-5.508-.206v.613l5.508.203zm-3.263 1.836v-.61h-2.04v.61h2.04zm4.69.816v-.612l-3.875-.815v.612l3.875.816zm1.022-.408v-.612h-.816v.612h.816zm1.222 3.06l-1.63-.816-.206.612 1.633.815.204-.61zm1.836-5.916v-.612h-1.836v.612h1.836zm2.45-4.08v-.612h-3.062v.612h3.06zm0 7.344v-.612h-2.45v.612h2.45zm38.962.612c-.545 0-1.396-.07-2.55-.204-1.157-.138-2.007-.204-2.55-.204-.273 0-.545.17-.816.51-.273.338-.545.51-.816.51-.273 0-.545-.102-.814-.306-.275-.204-.48-.306-.613-.306-1.63 0-3.197.338-4.69 1.02l-.817-.816c-1.09.135-2.72.542-4.895 1.225.27-.275.407-.546.407-.817h-2.447c0 .27-.07.542-.203.816-.408-.41-.816-.613-1.225-.613.408.408.54.68.408.816-1.09-.274-2.04-.408-2.855-.408.678 0 .814.134.406.408h-1.02c-.407-.408-1.224-.612-2.446-.612h-5.1c-.408.135-1.836.205-4.285.205h-2.856c.54 0 1.393.306 2.55.918 1.153.612 1.868.918 2.142.918.27 0 .68-.1 1.225-.305.542-.204.95-.307 1.226-.307.27 0 .27.134 0 .408-.14.134-.07.204.203.204.54 0 1.29-.102 2.243-.306.95-.204 1.633-.307 2.04-.307.542.408.884.612 1.02.612 3.396 0 5.78-.138 7.14-.41 0-.68.067-1.09.204-1.223.133 0 .203.17.203.51 0 .338.205.51.613.51.54 0 .744-.137.61-.407l.612.815c2.857 0 5.576-.408 8.16-1.224-.273.272-.07.41.613.41 1.223 0 2.58-.41 4.08-1.226 0 .27.475-.07 1.428-1.02l.203.61c.134.41.407.613.815.613.27 0 .713-.172 1.326-.51.613-.338.986-.507 1.122-.507zm-37.535-3.876v-.612h-2.04v.612h2.04zm.817 3.06l-1.43-.408v.408l1.225.408.204-.408zm2.447-23.256h-1.02v-.612h1.02v.612zm.204-46.716l-.61 1.428-.41-.204.41-1.224h.61zm1.02-2.856l-.815 2.448-.612-.204.814-2.244h.613zm0 20.808v-1.02h-.612v1.02h.613zm2.04 52.224v-.612h-2.038v.612h2.04zm0-50.388l-.202-.612-.816.408v.612l1.02-.408zm5.917 47.533v-.613h-5.1v.613h5.1zm-3.874 2.855v-.612h-1.02v.612h1.02zm1.427 0v-.612h-1.02v.612h1.02zm1.836-22.032v-.612h-2.45v.612h2.45zm0 22.032v-.612h-1.02v.612h1.02zm3.874-22.032v-.612l-3.467-.204v.612l3.467.204zm-1.428 22.032v-.612h-2.04v.612h2.04zm-1.02 1.02v-.61h-1.02v.61h1.02zm.817 5.916l-.205.612-1.02-.612.205-.407 1.02.407zm2.448-.816h-2.038v-.816h2.04v.816zm-.816-6.12v-.612h-.814v.612h.814zm1.633-90.78l-1.225 1.224-.408-.408 1.225-1.224.407.408zm1.02 91.8v-.61h-2.447v.61h2.447zm-.41-1.02v-.612h-1.63v.612h1.63zm3.47-3.264v-.612h-1.225v.612h1.225zm1.225 9.384c-.816 0-1.36.134-1.633.408l.815-1.02c.133.134.408.338.817.612zm-.614-10.608l-.61-.408-.206.408.408.408.408-.408zm8.772 9.18c-1.904.408-3.672.612-5.303.612 2.582-.815 3.672-1.224 3.264-1.224.68 0 1.358.204 2.04.612zm-2.447-4.488v-.612h-1.428v.612h1.428zm.408-1.02v-.61h-1.427v.61h1.428zm1.02-3.876v-.612h-1.428v.612h1.428zm5.1 8.568h-1.836v-.612h1.836v.612zm1.43-.612h-1.43V153h1.43v.612zm2.855-3.264h-2.652c.95 0 1.7.27 2.244.815 0-.136.135-.407.408-.815zm3.467 1.02v-.61h-.814v.61h.814zm2.244-2.448v-.612h-1.02v.612h1.02zm.613-1.224v-.61h-1.226v.61h1.225zm.202 1.836l-.203-.61-1.226.406v.612l1.428-.408zm1.225-2.04v-.612h-1.225v.613h1.225zm.816-35.904h-1.02v-.612h1.02v.612zm3.264 5.508l-1.02.408v-.408l.814-.408.207.408zm1.428 32.64l-1.225.816-.203-.408 1.225-.816.203.408zm2.04-3.672v-.612h-1.224v.612h1.224zm2.856 1.43h-.815v-.614h.816v.613zm3.673-9.386v-.612h-1.02v.612h1.02zm0 5.916l-.205-.408-.814.408v.408l1.02-.408zm2.653-7.14l-.205-.408-2.243.612v.612l2.45-.816zm-1.022 13.26l-1.223.408v-.408l1.02-.408.204.408zm7.346-53.448c-.547-1.087-3.197-2.31-7.957-3.672-.137.137-.203.75-.203 1.836 2.988.274 5.71.886 8.16 1.836zm-7.14 42.432v-.612h-1.02v.612h1.02zm7.954.408c-1.63.137-2.926 1.157-3.875 3.06-.138-.27-.41-.408-.817-.408 0 .273.135.682.408 1.225 2.04-.952 3.47-2.245 4.284-3.877zm1.836-74.052l-4.283 1.836v-.408l4.08-2.04.203.612zm-1.836 32.232l-2.04-.816v.612l1.837.612.204-.408zm.817 2.856l-1.224-1.836-.406.408 1.223 1.632.408-.204zm-.61 46.512h-.817v-.612h.816v.612zm3.263-46.512c-1.225.682-1.77 1.224-1.633 1.632.543.545.95.816 1.225.816 0-.27.066-.68.203-1.224.135-.542.205-.95.205-1.224zm-.61-35.292h-1.022v-.612h1.022v.612zm1.426 72.216l-1.634 1.632-.203-.408 1.63-1.632.206.408zm0-95.064l-.206-.408-1.223.816.204.408 1.225-.816zm0 20.196l-1.022.816-.406-.612 1.223-.816.204.612zm1.427-5.712h-1.428l-.614.816c.817 0 1.496-.27 2.04-.816zm.408 46.104c-.545-.408-1.225-1.087-2.04-2.04.134.274.204.545.204.816 0 .408-.138.75-.41 1.02 1.087 1.09 1.632 1.565 1.632 1.428 0-.542.205-.95.613-1.224zm2.04-63.648c-.683-.134-1.43-.542-2.245-1.224-.273-.27-.48-.408-.61-.408v1.224c-.138.545-.206.886-.206 1.02.135-.134.27-.338.408-.612.135-.27.27-.475.408-.612.27.816.135 1.565-.408 2.244l-.814 1.02c1.902-.27 3.058-1.154 3.466-2.652zm-1.837 19.992h-1.225v-.612h1.225v.612zm1.633-.816l-1.02.612v-.612l.815-.408.206.408zm.41 76.092h-.613l-.408-.816.612-.204.408 1.02zm1.02-92.208l-.41-.408-.815.816.408.408.816-.816zm.407 7.14v-1.224h-.613v1.224h.613zm2.04-5.508v-4.08c-.274-.27-.75-.408-1.43-.408 0 .274-.136.612-.407 1.02-.273.408-.408.816-.408 1.224l.613.612v2.856c.41-.27.95-.68 1.63-1.224zm-.612 2.04l-.205-.612-1.223.408v.612l1.428-.408zm.408 72.42h-.613v-1.02h.613v1.02zm2.244-96.288l-.816.816h-1.835v-2.448l1.428-1.428c.27.137.68 1.157 1.224 3.06zm-1.224 97.308h-.61l-.41-.816.612-.204.408 1.02zm16.728-86.088c0 .953-.68 2.177-2.04 3.672l-2.447 2.04c-.273-.27-.887-1.087-1.836-2.448-.408.274-1.428.07-3.06-.612.815-.542 1.29-1.087 1.427-1.632-2.447-.68-4.15-2.786-5.1-6.324l-1.428 1.428-2.447-2.448c1.085-1.766 1.9-2.652 2.446-2.652l.61.816c.136-.816.478-1.903 1.022-3.264 1.63-2.448 3.672-3.672 6.12-3.672.27 0 .948.204 2.04.612 1.086.408 1.902.612 2.447.612.133.545.066 1.157-.205 1.836 1.633 1.632 2.45 2.926 2.45 3.876 0 .545-.817 2.244-2.45 5.1 1.635.953 2.45 1.973 2.45 3.06zm-14.28 90.984l-.406 1.428-.408-.204.408-1.224h.406zm30.193-81.192c-1.906 1.36-4.83 3.264-8.773 5.712-1.09.953-2.584 2.244-4.486 3.876-.14 0-.408-.134-.816-.408 2.038-3.127 6.732-6.187 14.075-9.18zm1.428-5.304c0 .274-.07.612-.204 1.02-.137.408-.203.75-.203 1.02-.682-.134-1.36 0-2.04.408-.546-.68-.815-1.087-.815-1.224 0-.27.133-.78.408-1.53.27-.746.408-1.256.408-1.53.54-.134 1.357-.134 2.447 0v1.836z"/>
  </g>
</svg>
